<?xml version="1.0" encoding="utf-8"?>
<!-- Generator: Adobe Illustrator 19.1.0, SVG Export Plug-In . SVG Version: 6.00 Build 0)  -->
<svg xmlns="http://www.w3.org/2000/svg" xmlns:xlink="http://www.w3.org/1999/xlink" version="1.1" id="Layer_1" x="0px" y="0px" viewBox="0 0 50 50" style="enable-background:new 0 0 50 50" xml:space="preserve" fill="#929292">
<path style="fill:none;stroke:#929292;stroke-width:2;stroke-linecap:round;stroke-linejoin:round;stroke-miterlimit:10" d="  M44.535,2.207l-0.759-0.759c-0.597-0.597-1.565-0.597-2.162,0L41.551,1.51c-0.413,0.413-0.559,1.026-0.365,1.577  c1.066,3.033,6.749,19.644,0.588,25.804c-2.669,2.669-7.361,3.681-7.361,3.681l-1.84,1.84c0,0-0.952,4.633-3.681,7.361  c-6.883,6.883-22.801,0.808-25.762-0.485c-0.575-0.251-1.239-0.119-1.682,0.324h0c-0.597,0.597-0.597,1.565,0,2.162l0.759,0.759" fill="#929292"/>
<path d="M39.299,3.75c-0.012-0.033-0.017-0.068-0.028-0.101L3.585,39.335c0.115,0.037,0.232,0.071,0.345,0.121  c0.134,0.059,0.547,0.236,1.175,0.48L39.802,5.239C39.638,4.738,39.471,4.24,39.299,3.75z" fill="#929292"/>
</svg>
