<?xml version="1.0" encoding="utf-8"?>
<!-- Generator: Adobe Illustrator 18.1.1, SVG Export Plug-In . SVG Version: 6.00 Build 0)  -->
<svg xmlns="http://www.w3.org/2000/svg" xmlns:xlink="http://www.w3.org/1999/xlink" version="1.1" id="Layer_1" x="0px" y="0px" viewBox="0 0 50 50" enable-background="new 0 0 50 50" xml:space="preserve" fill="#929292">
<circle fill="none" stroke="#929292" stroke-width="2" stroke-linecap="round" stroke-linejoin="round" stroke-miterlimit="10" cx="23.5" cy="5.5" r="4.5"/>
<path fill="none" stroke="#929292" stroke-width="2" stroke-linecap="round" stroke-linejoin="round" stroke-miterlimit="10" d="  M19.5,29.6l-1.9,17.2c-0.1,1.1,0.7,2.1,1.8,2.2c0.1,0,0.1,0,0.2,0c1,0,1.9-0.8,2-1.8L23,35.1"/>
<polyline fill="none" stroke="#929292" stroke-width="2" stroke-linecap="round" stroke-linejoin="round" stroke-miterlimit="10" points="  33,21.6 25.4,23 24.2,18.5 "/>
<path fill="none" stroke="#929292" stroke-width="2" stroke-linecap="round" stroke-linejoin="round" stroke-miterlimit="10" d="  M19,16l2.9,9.4c0.3,1,1.3,1.6,2.3,1.4l9.8-1.8"/>
<circle fill="none" stroke="#929292" stroke-width="2.3333" stroke-linecap="round" stroke-linejoin="round" stroke-miterlimit="10" cx="36.5" cy="22.5" r="3.5"/>
<path fill="none" stroke="#929292" stroke-width="2" stroke-linecap="round" stroke-linejoin="round" stroke-miterlimit="10" d="  M28,22.1V17c0-2.8-2.2-5-5-5h-1c-1.7,0-3,1.3-3,3v10.8c0,2.1,0.6,4.1,1.8,5.8l5.2,7.3V47c0,1.1,0.9,2,2,2h0c1.1,0,2-0.9,2-2v-9.1  l-3-8.6"/>
</svg>
