<?xml version="1.0" encoding="utf-8"?>
<!-- Generator: Adobe Illustrator 19.2.1, SVG Export Plug-In . SVG Version: 6.00 Build 0)  -->
<svg xmlns="http://www.w3.org/2000/svg" xmlns:xlink="http://www.w3.org/1999/xlink" version="1.1" id="Layer_1" x="0px" y="0px" viewBox="0 0 50 50" style="enable-background:new 0 0 50 50" xml:space="preserve" fill="#929292">
<g fill="#929292">
	<path d="M25,15c-5.514,0-10,4.486-10,10s4.486,10,10,10s10-4.486,10-10c0-1.661-0.413-3.224-1.132-4.604l-1.496,1.496   C32.776,22.848,33,23.898,33,25c0,4.411-3.589,8-8,8s-8-3.589-8-8s3.589-8,8-8c2.571,0,4.857,1.224,6.321,3.115l1.427-1.427   C30.913,16.44,28.122,15,25,15z" fill="#929292"/>
	<path d="M25,8C15.626,8,8,15.626,8,25s7.626,17,17,17s17-7.626,17-17c0-3.6-1.132-6.936-3.049-9.687l-1.437,1.437   C39.081,19.119,40,21.953,40,25c0,8.271-6.729,15-15,15s-15-6.729-15-15s6.729-15,15-15c4.5,0,8.534,2.002,11.285,5.151   l1.414-1.414C34.583,10.227,30.052,8,25,8z" fill="#929292"/>
	<path d="M45.038,11.812l-1.447,1.447C45.746,16.659,47,20.685,47,25c0,12.131-9.869,22-22,22S3,37.131,3,25S12.869,3,25,3   c5.773,0,11.032,2.239,14.96,5.89l1.413-1.413C37.082,3.464,31.325,1,25,1C11.767,1,1,11.767,1,25s10.767,24,24,24s24-10.767,24-24   C49,20.132,47.539,15.6,45.038,11.812z" fill="#929292"/>
</g>
<circle cx="25" cy="25" r="3" fill="#929292"/>
<line style="fill:none;stroke:#929292;stroke-width:2;stroke-miterlimit:10" x1="25" y1="25" x2="41.279" y2="8.721" fill="#929292"/>
<polygon points="43,3 38,8 38,12 42,12 47,7 43,7 " fill="#929292"/>
</svg>
