<?xml version="1.0" encoding="utf-8"?>
<!-- Generator: Adobe Illustrator 18.1.1, SVG Export Plug-In . SVG Version: 6.00 Build 0)  -->
<svg xmlns="http://www.w3.org/2000/svg" xmlns:xlink="http://www.w3.org/1999/xlink" version="1.1" id="Layer_1" x="0px" y="0px" viewBox="0 0 50 50" enable-background="new 0 0 50 50" xml:space="preserve" fill="#929292">
<circle fill="none" stroke="#929292" stroke-width="2" stroke-linecap="round" stroke-miterlimit="10" cx="26" cy="6" r="5"/>
<circle fill="none" stroke="#929292" stroke-width="2" stroke-linecap="round" stroke-miterlimit="10" cx="19" cy="38" r="11"/>
<circle cx="19" cy="38" r="2" fill="#929292"/>
<path fill="none" stroke="#929292" stroke-width="2" stroke-linecap="round" stroke-linejoin="round" stroke-miterlimit="10" d="  M29.9,35h3.7l3.5,8.3c0.4,1.1,1.6,1.9,2.8,1.7c1.6-0.3,2.5-1.9,1.9-3.4l-4.2-11c-0.4-0.9-1.3-1.6-2.3-1.6h-7.7l1.5-9.7  c0.4-2.8-1.7-5.3-4.6-5.3l-3.1,0c-0.4,0-0.8,0.1-1.2,0.3l-8.7,3.9c-0.7,0.3-1.1,0.9-1.3,1.6l-2.2,7.8c-0.3,1.1,0.5,2.3,1.7,2.5  c1,0.2,2-0.6,2.3-1.6l1.8-6.3l6.6-2.7l-1.2,7.4"/>
<polyline fill="none" stroke="#929292" stroke-width="2" stroke-linecap="round" stroke-linejoin="round" stroke-miterlimit="10" points="  42,48 37,48 30,41 "/>
</svg>
