<?xml version="1.0" encoding="utf-8"?>
<!-- Generator: Adobe Illustrator 17.1.0, SVG Export Plug-In . SVG Version: 6.00 Build 0)  -->
<!DOCTYPE svg PUBLIC "-//W3C//DTD SVG 1.1//EN" "http://www.w3.org/Graphics/SVG/1.1/DTD/svg11.dtd">
<svg xmlns="http://www.w3.org/2000/svg" xmlns:xlink="http://www.w3.org/1999/xlink" version="1.1" id="Layer_1" x="0px" y="0px" width="50px" height="50px" viewBox="0 0 50 50" style="enable-background:new 0 0 50 50" xml:space="preserve" fill="#929292">
<style type="text/css">
	.st0{fill:none;stroke:#929292;stroke-width:2;stroke-linecap:round;stroke-linejoin:round;stroke-miterlimit:10;}
	.st1{fill:none;stroke:#929292;stroke-width:2.0725;stroke-linecap:round;stroke-linejoin:round;stroke-miterlimit:10;}
</style>
<polygon class="st0" points="49,45 1,45 1,49 13.9,49 49,49 " fill="#929292"/>
<path class="st1" d="M28.8,26.5c-3,1.9-3.3,4.3-3.1,5c0.2,0.7,0.3,0.9,1.7,2.2c2.3,2.1,5.6,3.9,5.5,4.3c-0.5,1.7-2,2.9-2.1,3.6  c0,0.3,0.3,0.4,0.1,0.8s-0.3,0.7-0.5,0.9c-0.2,0.2-0.7,0.5-0.8,0.7c-0.1,0.2-0.4,0.9-0.4,0.9s0.6,0.2,2.3,0.2c1.7,0,1.7-0.5,1.7-0.8  S33,43.1,33,43.1s0.7,0,0.9-0.1c0.2-0.2,0.4-0.4,0.4-0.6s-0.1-0.9,0-1.2c0-0.9,1.2-3.2,1.4-3.9c0.1-0.2-1.5-2.2-1.9-2.7  c-0.4-0.5-1-1.6-0.9-1.8c0.2-0.5,3.9-0.6,5.1-4.7c0.2-0.3,0.4-0.4,0.6-0.5c4.3-1,2.6,5.6,5.6,9.3c-0.1-0.4-0.1-0.9-0.1-0.9  c0.4,1.8,1,2.3,1,2.3s0.1-0.5,0.1-1.1c0.1,1.3,0.3,2.2,0.4,2.1c0.2-0.2,1.2-1.4,1.2-4.5c0-8.3-3-11.1-8-8.8  c-0.3,0.2-0.5,0.4-0.8-0.2c-0.3-0.6-0.4-3.8-5.5-5.4c0,0-4.4-1.8-6.8-5.7c0.6,0.3,1.3,1.6,2.1,1.6c-0.3-1.4,0.6-0.3,1.3-0.4  c-0.2-0.7-0.5-1.9-1.2-2.2c0.4-0.1,0.8,0,1.3,0.2c-0.1-0.7-0.9-1.8-1.7-1.9c0.3-0.1,0.6-0.5,0.9-0.6c-0.5-0.3-1.3-0.9-2.9-1.2  c0-0.5,1.2,0.3,2.6-1.3c-0.9,0.1-2.5-1.3-3-1.5c-0.2-0.9,1.1-0.8,2-0.7c-0.8-1-2.5-1.8-4.1-2.3c-0.3-0.1,0.5-0.3,1.2-0.7  c-0.9-0.3-2.6-0.1-2.9-0.5c0.6-0.3,1.1-0.8,1.3-1.3c-0.8,0.1-3.5-0.4-4.2-0.4c-0.5,0-1.1,0.2-1.5,0.4c-0.2,0-0.6-0.7-0.9-0.9  c-0.3,0.3-0.5,1.2-0.2,2c-2.2,0.1-1.9,1-2.4,1.5C10.9,6.8,9,7,8.6,8C8.5,8.3,8.5,8.8,8.5,9.1c0.1,1.1,1.1,1.4,2.2,1.6  c0.5,0.1,0.5-0.8,1.1-1c3-0.9,6.5,2.5,6.6-3.3" fill="#929292"/>
<path class="st1" d="M16.7,9.9c0.7,1.8,0.6,4.9-0.4,6.6c-3.1,2.9-4.5,4.1-4.7,4.2c-0.2,0.1-1.3,0.6-1.3,1.2s0.1,1,0.6,1.7  c0.5,0.7,1.7,2.5,2.9,4c0.2,0.3,0.5,0.5,0.8,0.5c0.2,0,0.5,0.1,0.7,0.2c0.1,0.1,0.3,0.4,0.3,0.5c0,0,1.9,0.9,1.9,0.9  s0.5-0.3,0.6-1.1c0.1-0.8-0.1-1.3-0.1-1.3s-0.6-0.4-0.8-0.6c-0.2-0.1-0.7,0.1-0.8-0.1c-0.1-0.2-0.2-0.8-0.5-1  c-0.3-0.2-1.4-0.4-1.7-0.8c-0.2-0.3-1.2-2-1-2c2-0.1,4.1-0.9,4.1-0.9s2.9,5.4,8.6,7.3" fill="#929292"/>
<path class="st1" d="M14,18.6c0,0-3.4-0.2-3.7-0.4c-0.2-0.1-0.5,0.1-0.8,0.4c-0.8,0.8-1.7,0.9-1.9,1.2c-0.2,0.3-0.2,0.5-0.4,0.7  C7,20.8,6.6,20.8,6.4,21s-1.2,1.2-1.2,1.2s-0.8,0-1.6-0.3C2.9,21.6,2,21,2,21s1.1-0.9,2.4-1.4c0.1-0.1,0.4-0.7,0.5-0.8  c0.2-0.1,2.2-0.8,4.2-2c0.4-0.2,0.8-0.7,1-0.7c0.9-0.2,6.5-0.1,6.5-0.1" fill="#929292"/>
<path class="st1" d="M26.3,32.6c0,0-0.2,1.3,0.7,3.1c0.6,1.2,0.4,2.7-0.3,3.2c-0.7,0.6-3.2,2.8-3.3,3c-0.1,0.2-0.2,0.4-0.2,0.5  c0,0.1-0.4,0.6-0.5,0.6c-1.4,0.1-1.5,1.6-1.5,1.6s1.5,0.3,2.4,0.3c1,0,1.4-0.1,1.4-0.1s-0.2-1.1,0-1.2c0.1-0.1,0.7,0.2,1,0.3  c0.2,0,0.5,0,0.5-0.5c0.1-0.5,0.2-1,0.4-1.3c0.3-0.3,0.7-1,1.4-1.5c0.7-0.5,1.2-1,1.3-1.2c0.1-0.2,0-4,0-4" fill="#929292"/>
</svg>
