<?xml version="1.0" encoding="utf-8"?>
<!-- Generator: Adobe Illustrator 19.2.0, SVG Export Plug-In . SVG Version: 6.00 Build 0)  -->
<svg xmlns="http://www.w3.org/2000/svg" xmlns:xlink="http://www.w3.org/1999/xlink" version="1.1" id="Layer_1" x="0px" y="0px" viewBox="0 0 50 50" style="enable-background:new 0 0 50 50" xml:space="preserve" fill="#929292">
<circle style="fill:none;stroke:#929292;stroke-width:2;stroke-linejoin:round;stroke-miterlimit:10" cx="22" cy="12" r="4" fill="#929292"/>
<path style="fill:none;stroke:#929292;stroke-width:2;stroke-linejoin:round;stroke-miterlimit:10" d="M13.385,2.13L13.385,2.13  c1.02,0.468,1.462,1.678,0.983,2.693l-2.613,5.539l3.171,5.511l7.903,3.483l6.165,4.064l6.226-0.662  c1.084-0.115,2.067,0.643,2.231,1.721v0c0.174,1.147-0.643,2.208-1.797,2.333l-7.288,0.786c-0.68,0.073-1.364-0.088-1.94-0.456  l-5.125-3.282l-1.657,6.527l14.504,12.592c1,0.811,1.122,2.292,0.269,3.256l0,0c-0.785,0.887-2.12,1.019-3.063,0.303L14.773,33.178  L9,37.073V44.5C9,45.881,7.881,47,6.5,47h0C5.119,47,4,45.881,4,44.5v-8.2c0-1.455,0.634-2.838,1.737-3.788l4.569-3.936l1.698-6.981  l-4.229-9.958C7.439,10.847,7.458,9.95,7.828,9.174l2.897-6.078C11.199,2.101,12.384,1.671,13.385,2.13z" fill="#929292"/>
<line style="fill:none;stroke:#929292;stroke-width:2;stroke-linecap:round;stroke-linejoin:round;stroke-miterlimit:10" x1="14.543" y1="3.761" x2="46.154" y2="11.265" fill="#929292"/>
<line style="fill:none;stroke:#929292;stroke-width:2;stroke-linecap:round;stroke-linejoin:round;stroke-miterlimit:10" x1="7.529" y1="2.096" x2="10.832" y2="2.88" fill="#929292"/>
</svg>
