<?xml version="1.0" encoding="utf-8"?>
<!-- Generator: Adobe Illustrator 17.1.0, SVG Export Plug-In . SVG Version: 6.00 Build 0)  -->
<!DOCTYPE svg PUBLIC "-//W3C//DTD SVG 1.1//EN" "http://www.w3.org/Graphics/SVG/1.1/DTD/svg11.dtd">
<svg xmlns="http://www.w3.org/2000/svg" xmlns:xlink="http://www.w3.org/1999/xlink" version="1.1" id="Layer_1" x="0px" y="0px" viewBox="0 0 50 50" enable-background="new 0 0 50 50" xml:space="preserve" fill="#929292">
<path fill="none" stroke="#929292" stroke-width="2" stroke-linecap="round" stroke-linejoin="round" stroke-miterlimit="10" d="  M25.047,27c1.124,8.27,2.414,15.932,7.895,20.807c0.603,0.946-3.663,2.221-5.106-0.202C27.147,46.447,22.638,39.766,25.047,27z"/>
<path fill="none" stroke="#929292" stroke-width="1.9845" stroke-linecap="round" stroke-linejoin="round" stroke-miterlimit="10" d="  M43.063,17.469c-7.242,0-14.452,7.061-15.731,5.793s8.817-10.137,8.817-17.688c0-2.527-2.47-4.575-6.463-4.575  c-2.55,0-3.52,0.715-4.617,0.715C23.973,1.715,23.003,1,20.453,1S13.99,2.482,13.99,6.05c0,8.46,9.727,15.432,8.817,17.213  c-0.91,1.781-8.356-5.336-15.858-5.336c-2.501,0-5.837,1.402-4.732,6.176c0.57,2.463,1.623,3.054,1.847,4.117  c0.225,1.064-0.413,3.251,0.109,5.724c0.522,2.473,2.596,5.786,6.931,4.912C17.914,37.484,22.479,27,25.047,27  c3.845,0,8.368,8.196,14.609,10.311c2.88,0.976,5.789-0.893,6.31-3.366c0.522-2.474-0.115-4.203,0.109-5.267  c0.224-1.064,1.238-1.783,1.76-4.257C48.356,21.948,47.867,17.469,43.063,17.469z"/>
</svg>
