<?xml version="1.0" encoding="utf-8"?>
<!-- Generator: Adobe Illustrator 19.2.0, SVG Export Plug-In . SVG Version: 6.00 Build 0)  -->
<svg xmlns="http://www.w3.org/2000/svg" xmlns:xlink="http://www.w3.org/1999/xlink" version="1.1" id="Layer_1" x="0px" y="0px" viewBox="0 0 50 50" style="enable-background:new 0 0 50 50" xml:space="preserve" fill="#929292">
<circle style="fill:none;stroke:#929292;stroke-width:2;stroke-linejoin:round;stroke-miterlimit:10" cx="10.5" cy="20.5" r="4.5" fill="#929292"/>
<g fill="#929292">
	<g fill="#929292">
		<path style="fill:none;stroke:#929292;stroke-width:2;stroke-linejoin:round;stroke-miterlimit:10" d="M42.199,43.96    l-4.997-18.962c-1.002-3.616-2.551-6.098-7.197-6.771L23,18.033V5c0-1.105-0.895-2-2-2s-2,0.895-2,2v13.667l-5.384,20.203    c-0.29,1.089,0.359,2.207,1.449,2.494h0c1.089,0.287,2.205-0.366,2.489-1.456l3.343-12.835l7.23-0.061l-4.351,16.964    C23.383,45.508,24.54,47,26.123,47c1.105,0,2.07-0.748,2.346-1.818l4.344-16.853l4.695,16.897C37.798,46.274,38.753,47,39.841,47    h0.015C41.445,47,42.604,45.496,42.199,43.96z" fill="#929292"/>
	</g>
</g>
</svg>
