<?xml version="1.0" encoding="utf-8"?>
<!-- Generator: Adobe Illustrator 18.0.0, SVG Export Plug-In . SVG Version: 6.00 Build 0)  -->
<!DOCTYPE svg PUBLIC "-//W3C//DTD SVG 1.0//EN" "http://www.w3.org/TR/2001/REC-SVG-20010904/DTD/svg10.dtd">
<svg xmlns="http://www.w3.org/2000/svg" xmlns:xlink="http://www.w3.org/1999/xlink" version="1.0" id="Layer_1" x="0px" y="0px" viewBox="0 0 50 50" enable-background="new 0 0 50 50" xml:space="preserve" fill="#929292">
<ellipse fill="none" stroke="#929292" stroke-width="2" stroke-miterlimit="10" cx="13" cy="15" rx="12" ry="5"/>
<path fill="none" stroke="#929292" stroke-width="2" stroke-linecap="round" stroke-linejoin="round" stroke-miterlimit="10" d="  M1,15c0,0.7,0,6.3,0,7c0,2.8,5.4,5,12,5c6.6,0,12-2.2,12-5c0-0.7,0-6.3,0-7"/>
<path fill="none" stroke="#929292" stroke-width="2" stroke-linecap="round" stroke-linejoin="round" stroke-miterlimit="10" d="  M48.1,1h-3.8l-7.9,27.5C35.1,33,31,36,26.4,36H9.5C5.9,36,3,39,3,42.5C3,46.1,5.9,49,9.5,49h14.4c6.3,0,11.7-4.1,13.5-10.2l0.8-2.8  h0L48.1,1z M25,36v13 M11,49V36"/>
</svg>
