<?xml version="1.0" encoding="utf-8"?>
<!-- Generator: Adobe Illustrator 19.2.0, SVG Export Plug-In . SVG Version: 6.00 Build 0)  -->
<svg xmlns="http://www.w3.org/2000/svg" xmlns:xlink="http://www.w3.org/1999/xlink" version="1.1" id="Layer_1" x="0px" y="0px" viewBox="0 0 50 50" style="enable-background:new 0 0 50 50" xml:space="preserve" fill="#929292">
<path style="fill:none;stroke:#929292;stroke-width:2;stroke-linecap:round;stroke-linejoin:round;stroke-miterlimit:10" d="  M37.169,15.222c1.159,3.181,4.618,2.624,5.499,2.273c0.709,0.232,2.926,0.813,2.926,0.813v0c0.79-0.816,0.805-2.107,0.034-2.941  l-1.956-2.116c0,0-1.171-3.251-4.672-3.251c0,0,1.117-1.883,0-3" fill="#929292"/>
<path style="fill:none;stroke:#929292;stroke-width:2;stroke-linecap:round;stroke-linejoin:round;stroke-miterlimit:10" d="  M11.481,22.642c0,0-1.063-0.642-2.409-0.642C6.469,22,3,24.687,3,30h3.026c0,0,0.071-5,4.959-5" fill="#929292"/>
<path style="fill:none;stroke:#929292;stroke-width:2;stroke-linecap:round;stroke-linejoin:round;stroke-miterlimit:10" d="  M23.203,20.989C21.109,20.726,19.504,20,17.116,20C13.181,20,11,22.32,11,25.812c0,3.671,1.845,3.883,1.845,5.503  s-1.786,3.249-3.641,5.77V47h2.922v-8.675c0,0,6.507-3.397,6.507-7.8c0,0,5.41,2.475,12.704,2.475C30.919,37.486,30,44,30,44  s1,1.665,1,3h3c0-1.358-1-3-1-3s1.442-6.79,2-12c0,0,2.816-1.785,2.816-5.018c0-3.03-0.726-8.156,1.331-9.585" fill="#929292"/>
<path style="fill:none;stroke:#929292;stroke-width:2;stroke-linecap:round;stroke-linejoin:round;stroke-miterlimit:10" d="  M39.137,8c-8.6,1.399-9.177,11.647-9.177,11.647s-0.443,0.493-1.973,0.925" fill="#929292"/>
<circle style="fill:none;stroke:#929292;stroke-width:2;stroke-linecap:round;stroke-linejoin:round;stroke-miterlimit:10" cx="26" cy="6" r="3" fill="#929292"/>
<path style="fill:none;stroke:#929292;stroke-width:2;stroke-linecap:round;stroke-linejoin:round;stroke-miterlimit:10" d="  M31.114,14.258L26.44,12.86l0.155-0.557c0.28-1.006-0.299-2.05-1.301-2.346l0,0c-1.009-0.298-2.068,0.275-2.371,1.282l-1.879,6.24  c-0.321,1.066,0.123,2.214,1.078,2.787l3.452,2.069l-1.779,4.052c-0.291,0.662-0.008,1.436,0.641,1.755l0,0  c0.687,0.337,1.516,0.038,1.829-0.661l1.83-4.237c0.453-1.049,0.127-2.272-0.787-2.957l-2.429-1.817l0.783-3.104l4.588,1.346" fill="#929292"/>
<path style="fill:none;stroke:#929292;stroke-width:2;stroke-linecap:round;stroke-linejoin:round;stroke-miterlimit:10" d="  M36.889,30.13C37.134,35.627,39,40.375,39,40.375l-2.467,3.457l-2.399-1.825l1.402-2.232c0,0-0.882-2.639-0.934-4.309" fill="#929292"/>
<path style="fill:none;stroke:#929292;stroke-width:2;stroke-linecap:round;stroke-linejoin:round;stroke-miterlimit:10" d="  M18.123,32.82c0,0,0.914,2.343-0.123,5.453L21.204,47h2.922l-3.146-9.036c0,0,1.6-2.629,1.486-5.943" fill="#929292"/>
</svg>
