<?xml version="1.0" encoding="utf-8"?>
<!-- Generator: Adobe Illustrator 19.2.0, SVG Export Plug-In . SVG Version: 6.00 Build 0)  -->
<svg xmlns="http://www.w3.org/2000/svg" xmlns:xlink="http://www.w3.org/1999/xlink" version="1.1" id="Layer_1" x="0px" y="0px" viewBox="0 0 50 50" style="enable-background:new 0 0 50 50" xml:space="preserve" fill="#929292">
<circle style="fill:none;stroke:#929292;stroke-width:2;stroke-linejoin:round;stroke-miterlimit:10" cx="15.5" cy="6.5" r="3.5" fill="#929292"/>
<circle style="fill:none;stroke:#929292;stroke-width:2;stroke-linejoin:round;stroke-miterlimit:10" cx="40.5" cy="7.5" r="3.5" fill="#929292"/>
<path style="fill:none;stroke:#929292;stroke-width:2;stroke-linecap:round;stroke-linejoin:round;stroke-miterlimit:10" d="  M9,23.614l0.008,10.997l-2.906,9.633c-0.345,1.1,0.249,2.275,1.341,2.648h0c1.141,0.39,2.378-0.247,2.724-1.403l2.709-9.053  l0.584-7.436L17,35.74V45c0,1.105,0.895,2,2,2h0c1.105,0,2-0.895,2-2v-9.734c0-0.488-0.089-0.971-0.263-1.427l-3.82-10.006  L18.937,16l12.79-3.569c1.02-0.285,1.6-1.358,1.28-2.367v0c-0.295-0.93-1.255-1.477-2.206-1.257L12.184,13.12  c-0.959,0.222-1.831,0.723-2.507,1.438l-5.432,5.754c-0.691,0.732-0.835,1.824-0.358,2.711l0,0c0.564,1.047,1.824,1.503,2.928,1.06  l6.579-2.645c0.849-0.341,1.277-1.293,0.969-2.155l0,0c-0.327-0.915-1.351-1.372-2.25-1.005l-2.976,1.215" fill="#929292"/>
<path style="fill:none;stroke:#929292;stroke-width:2;stroke-linecap:round;stroke-linejoin:round;stroke-miterlimit:10" d="  M41.27,25.976l-0.975,3.876l3.637,14.526c0.281,1.081-0.349,2.19-1.421,2.504h0c-1.113,0.325-2.275-0.328-2.576-1.448L35.803,29.57  l-5.265,7.117l-1.724,8.708c-0.177,1.056-1.19,1.758-2.24,1.553h0c-1.01-0.197-1.68-1.16-1.513-2.175l1.763-9.257  c0.103-0.539,0.316-1.052,0.625-1.506l4.119-6.037l2.653-8.125l-4.903,3.585l-5.679,1.112c-0.938,0.184-1.851-0.414-2.059-1.347l0,0  c-0.211-0.949,0.386-1.889,1.334-2.102l5.56-1.249l5.798-5.118c1.154-1.019,2.74-1.397,4.23-1.007l3.028,0.792  c1.637,0.428,2.91,1.716,3.318,3.358l1.528,6.143c0.212,0.853-0.024,1.756-0.627,2.396v0c-0.916,0.972-2.42,1.086-3.472,0.263  l-4.158-3.282c-0.722-0.57-0.845-1.617-0.274-2.339v0c0.559-0.707,1.579-0.84,2.301-0.302l2.717,2.027" fill="#929292"/>
</svg>
