<?xml version="1.0" encoding="utf-8"?>
<!-- Generator: Adobe Illustrator 17.0.2, SVG Export Plug-In . SVG Version: 6.00 Build 0)  -->
<!DOCTYPE svg PUBLIC "-//W3C//DTD SVG 1.1//EN" "http://www.w3.org/Graphics/SVG/1.1/DTD/svg11.dtd">
<svg xmlns="http://www.w3.org/2000/svg" xmlns:xlink="http://www.w3.org/1999/xlink" version="1.1" id="Layer_1" x="0px" y="0px" width="50px" height="50px" viewBox="0 0 50 50" enable-background="new 0 0 50 50" xml:space="preserve" fill="#929292">
<circle fill="none" stroke="#929292" stroke-width="2" stroke-linecap="round" stroke-miterlimit="10" cx="25" cy="7" r="6"/>
<path fill="none" stroke="#929292" stroke-width="2" stroke-linecap="round" stroke-linejoin="round" stroke-miterlimit="10" d="  M16.795,14.05c0,0-0.697,2.799-0.65,5.459c-1.124,0.102-6.636,0.498-6.636,0.498s1.487,3.139,2.022,4.552  c0.365,0.963,0.184,1.84-0.368,2.097c-0.647,0.302-1.582-0.147-2.576-1.214c-1.066-1.145-4.733-6.05-5.262-6.844  c-0.557-0.836-0.777-2.279,0.973-2.725C5.741,15.505,16.795,14.05,16.795,14.05z"/>
<path fill="none" stroke="#929292" stroke-width="2" stroke-linecap="round" stroke-miterlimit="10" d="M21.12,18.211  c-0.275,1.298,0.323,2.768,2.438,3.744c2.53,1.168,5.04,2.341,9.983,4.493c1.77,0.771,1.867,0.617,3.414-0.753  c1.516-1.343,7.396-6.792,9.368-8.63c1.795-1.673-0.387-3.883-2.146-2.754C42.786,15.204,35,21.219,35,21.219  s-5.247-2.6-7.721-3.876c-1.127-0.581-2.221-1.315-3.663-1.315C22.528,16.027,21.415,16.82,21.12,18.211z"/>
<path fill="none" stroke="#929292" stroke-width="2" stroke-linecap="round" stroke-linejoin="round" stroke-miterlimit="10" d="  M30.616,30.74c-1.41-0.533-1.273-0.456-14.359-5.604c0,0-8.19,17.922-9.142,20.028c-0.739,1.634-0.721,2.856,0.606,3.548  c1.325,0.691,2.443-0.427,3.346-1.5c0.923-1.096,6.385-8.736,6.385-8.736s7.597-2.085,11.814-3.158  C32.326,34.538,33.078,31.67,30.616,30.74z"/>
</svg>
