<?xml version="1.0" encoding="utf-8"?>
<!-- Generator: Adobe Illustrator 18.1.1, SVG Export Plug-In . SVG Version: 6.00 Build 0)  -->
<svg xmlns="http://www.w3.org/2000/svg" xmlns:xlink="http://www.w3.org/1999/xlink" version="1.1" id="Layer_1" x="0px" y="0px" viewBox="0 0 50 50" enable-background="new 0 0 50 50" xml:space="preserve" fill="#929292">
<polyline fill="none" stroke="#929292" stroke-width="2" stroke-miterlimit="10" points="44.2,28.4 39.4,41 11,41 11,37 0,37 "/>
<circle fill="none" stroke="#929292" stroke-width="2" stroke-miterlimit="10" cx="13" cy="12" r="4"/>
<path fill="none" stroke="#929292" stroke-width="2" stroke-miterlimit="10" d="M25.6,22.2l-15.1-4.1C10.1,18,9,18,8.8,18  c-1.2,0-2.2,0.7-2.7,1.8L1.3,31.6c-0.8,1.9,0.1,4.1,2,4.9l0.6,0.3C4.6,37,5.4,37,6,37s9.6-0.4,9.6-0.4l5.9,4  c0.4,0.3,0.8,0.4,1.3,0.4c0.7,0,1.4-0.3,1.9-1c0.7-1,0.4-2.4-0.6-3.1l-6.5-4.5c-0.4-0.3-1-0.4-1.5-0.4l-6,0l3.7-8.8l10.9,2.8  c0.2,0,0.3,0.1,0.5,0.1c0.9,0,1.7-0.6,1.9-1.4C27.2,23.6,26.6,22.5,25.6,22.2z"/>
<circle fill="none" stroke="#929292" stroke-width="2" stroke-miterlimit="10" cx="45" cy="24" r="4"/>
<line fill="none" stroke="#929292" stroke-width="2" stroke-linejoin="round" stroke-miterlimit="10" x1="29" y1="24" x2="41" y2="24"/>
</svg>
