<?xml version="1.0" encoding="utf-8"?>
<!-- Generator: Adobe Illustrator 19.2.1, SVG Export Plug-In . SVG Version: 6.00 Build 0)  -->
<svg xmlns="http://www.w3.org/2000/svg" xmlns:xlink="http://www.w3.org/1999/xlink" version="1.1" id="Layer_1" x="0px" y="0px" viewBox="0 0 50 50" style="enable-background:new 0 0 50 50" xml:space="preserve" fill="#929292">
<path style="fill:none;stroke:#929292;stroke-width:2;stroke-linejoin:round;stroke-miterlimit:10" d="M7.849,35.705l0.446,0.446  c1.132,1.132,2.967,1.132,4.099,0l20.26-20.26l-4.545-4.545l-20.26,20.26C6.717,32.738,6.717,34.573,7.849,35.705z" fill="#929292"/>
<path style="fill:none;stroke:#929292;stroke-width:2;stroke-linejoin:round;stroke-miterlimit:10" d="M11.078,16.915  L11.078,16.915c-1.447-1.447-1.447-3.793,0-5.24l4.59-4.59c1.447-1.447,3.793-1.447,5.24,0l0,0c1.447,1.447,1.447,3.793,0,5.24  l-4.59,4.59C14.87,18.362,12.525,18.362,11.078,16.915z" fill="#929292"/>
<polyline style="fill:none;stroke:#929292;stroke-width:2;stroke-linejoin:round;stroke-miterlimit:10" points="27.309,21.234   37.632,31.556 40.307,28.882 29.984,18.559 " fill="#929292"/>
<path style="fill:none;stroke:#929292;stroke-width:2;stroke-linejoin:round;stroke-miterlimit:10" d="M10.841,36.946l1.973-0.167  c2.389-0.202,4.688,0.956,5.948,2.996l4.014,6.501c0.507,0.821,1.639,0.972,2.343,0.313l1.041-0.973  c0.785-0.734,0.969-1.908,0.447-2.847l-5.237-9.426c-0.858-1.543-0.893-3.412-0.096-4.987l1.162-2.294" fill="#929292"/>
<rect x="33.562" y="2.148" transform="matrix(0.7071 0.7071 -0.7071 0.7071 16.5189 -22.2095)" style="fill:none;stroke:#929292;stroke-width:2;stroke-linejoin:round;stroke-miterlimit:10" width="3.014" height="13.374" fill="#929292"/>
<path style="fill:none;stroke:#929292;stroke-width:2;stroke-linejoin:round;stroke-miterlimit:10" d="M24.562,24.062l3.424,7.169  c0.352,0.736,0.246,1.609-0.272,2.24L24,38" fill="#929292"/>
<line style="fill:none;stroke:#929292;stroke-width:2;stroke-linejoin:round;stroke-miterlimit:10" x1="19.165" y1="15.151" x2="21.81" y2="17.796" fill="#929292"/>
<path style="fill:none;stroke:#929292;stroke-width:2;stroke-linecap:round;stroke-linejoin:round;stroke-miterlimit:10" d="  M20.771,29.881c0,0,0.864,1.224,3.312,1.584" fill="#929292"/>
</svg>
