<?xml version="1.0" encoding="utf-8"?>
<!-- Generator: Adobe Illustrator 19.2.1, SVG Export Plug-In . SVG Version: 6.00 Build 0)  -->
<svg xmlns="http://www.w3.org/2000/svg" xmlns:xlink="http://www.w3.org/1999/xlink" version="1.1" id="Layer_1" x="0px" y="0px" viewBox="0 0 50 50" style="enable-background:new 0 0 50 50" xml:space="preserve" fill="#929292">
<path style="fill:none;stroke:#929292;stroke-width:2;stroke-linejoin:round;stroke-miterlimit:10" d="M11.093,37.008h1.899v1.899  c0,0.53-0.211,1.039-0.586,1.414L6.02,46.707c-0.391,0.391-1.024,0.391-1.414,0l-1.313-1.313c-0.391-0.391-0.391-1.024,0-1.414  l6.386-6.386C10.054,37.219,10.563,37.008,11.093,37.008z" fill="#929292"/>
<path style="fill:none;stroke:#929292;stroke-width:2;stroke-miterlimit:10" d="M44.965,5.035c-4.047-4.047-10.609-4.047-14.656,0  c-0.563,0.563-2.709,2.709-3.273,3.273c-4.047,4.047-4.047,10.609,0,14.656c4.047,4.047,10.609,4.047,14.656,0  c0.563-0.563,2.709-2.709,3.273-3.273C49.012,15.645,49.012,9.083,44.965,5.035z" fill="#929292"/>
<path style="fill:none;stroke:#929292;stroke-width:2;stroke-linejoin:round;stroke-miterlimit:10" d="M12.913,37.087  c0,0,7.144-7.144,9.171-9.171c2.975-2.975,2-11,2-11" fill="#929292"/>
<path style="fill:none;stroke:#929292;stroke-width:2;stroke-linejoin:round;stroke-miterlimit:10" d="M22.083,27.917  c2.975-2.975,11-2,11-2" fill="#929292"/>
<line style="fill:none;stroke:#929292;stroke-linejoin:round;stroke-miterlimit:10" x1="26.923" y1="23.077" x2="44.914" y2="5.086" fill="#929292"/>
<line style="fill:none;stroke:#929292;stroke-linejoin:round;stroke-miterlimit:10" x1="29.348" y1="24.652" x2="46.611" y2="7.389" fill="#929292"/>
<line style="fill:none;stroke:#929292;stroke-linejoin:round;stroke-miterlimit:10" x1="32.473" y1="25.527" x2="47.699" y2="10.301" fill="#929292"/>
<line style="fill:none;stroke:#929292;stroke-linejoin:round;stroke-miterlimit:10" x1="24.473" y1="17.527" x2="39.699" y2="2.301" fill="#929292"/>
<line style="fill:none;stroke:#929292;stroke-linejoin:round;stroke-miterlimit:10" x1="25.348" y1="20.652" x2="42.611" y2="3.389" fill="#929292"/>
<line style="fill:none;stroke:#929292;stroke-linejoin:round;stroke-miterlimit:10" x1="29.372" y1="7.372" x2="42.638" y2="20.638" fill="#929292"/>
<line style="fill:none;stroke:#929292;stroke-linejoin:round;stroke-miterlimit:10" x1="27.306" y1="9.306" x2="40.66" y2="22.66" fill="#929292"/>
<line style="fill:none;stroke:#929292;stroke-linejoin:round;stroke-miterlimit:10" x1="25.196" y1="11.196" x2="38.811" y2="24.811" fill="#929292"/>
<line style="fill:none;stroke:#929292;stroke-linejoin:round;stroke-miterlimit:10" x1="24.199" y1="14.199" x2="35.671" y2="25.671" fill="#929292"/>
<line style="fill:none;stroke:#929292;stroke-linejoin:round;stroke-miterlimit:10" x1="36.275" y1="2.275" x2="47.763" y2="13.763" fill="#929292"/>
<line style="fill:none;stroke:#929292;stroke-linejoin:round;stroke-miterlimit:10" x1="33.12" y1="3.12" x2="46.918" y2="16.918" fill="#929292"/>
<line style="fill:none;stroke:#929292;stroke-linejoin:round;stroke-miterlimit:10" x1="31.372" y1="5.372" x2="44.638" y2="18.638" fill="#929292"/>
</svg>
