<?xml version="1.0" encoding="utf-8"?>
<!-- Generator: Adobe Illustrator 19.2.0, SVG Export Plug-In . SVG Version: 6.00 Build 0)  -->
<svg xmlns="http://www.w3.org/2000/svg" xmlns:xlink="http://www.w3.org/1999/xlink" version="1.1" id="Layer_1" x="0px" y="0px" viewBox="0 0 50 50" style="enable-background:new 0 0 50 50" xml:space="preserve" fill="#929292">
<metadata fill="#929292"><?xpacket begin="﻿" id="W5M0MpCehiHzreSzNTczkc9d"?>
<x:xmpmeta xmlns:x="adobe:ns:meta/" x:xmptk="Adobe XMP Core 5.6-c111 79.158366, 2015/09/25-01:12:00        ">
   <rdf:RDF xmlns:rdf="http://www.w3.org/1999/02/22-rdf-syntax-ns#">
      <rdf:Description rdf:about=""/>
   </rdf:RDF>
</x:xmpmeta>
                                                                                                    
                                                                                                    
                                                                                                    
                                                                                                    
                                                                                                    
                                                                                                    
                                                                                                    
                                                                                                    
                                                                                                    
                                                                                                    
                                                                                                    
                                                                                                    
                                                                                                    
                                                                                                    
                                                                                                    
                                                                                                    
                                                                                                    
                                                                                                    
                                                                                                    
                                                                                                    
                           
<?xpacket end="w"?></metadata>
<circle style="fill:none;stroke:#929292;stroke-width:2;stroke-linejoin:round;stroke-miterlimit:10" cx="17.5" cy="7.5" r="4.5" fill="#929292"/>
<path style="fill:none;stroke:#929292;stroke-width:2;stroke-linejoin:round;stroke-miterlimit:10" d="M42.954,11.023  c-0.843-0.999-2.359-1.101-3.437-0.362l-14.196,9.735l-2.684-4.1l4.607-1.502c1.167-0.365,1.997-1.401,2.096-2.62l0.65-6.969  c0.103-1.1-0.698-2.079-1.797-2.195c-1.129-0.12-2.134,0.715-2.225,1.846l-0.455,5.889l-9.07,2.95L9.329,18.58  c-1.421,0.977-1.728,2.948-0.67,4.311l4.059,5.227c0.65,0.837,1.847,1.131,2.742,0.564c1.029-0.652,1.245-2.036,0.501-2.968  l-3.499-4.376l2.948-2.127L20,26.215l0,18.143c0,1.308,0.941,2.5,2.243,2.63C23.739,47.137,25,45.966,25,44.5V30.894  c0-2.638,1.3-5.106,3.476-6.598l13.988-9.592C43.672,13.875,43.924,12.173,42.954,11.023z" fill="#929292"/>
</svg>
