<?xml version="1.0" encoding="utf-8"?>
<!-- Generator: Adobe Illustrator 19.2.0, SVG Export Plug-In . SVG Version: 6.00 Build 0)  -->
<svg xmlns="http://www.w3.org/2000/svg" xmlns:xlink="http://www.w3.org/1999/xlink" version="1.1" id="Layer_1" x="0px" y="0px" viewBox="0 0 50 50" style="enable-background:new 0 0 50 50" xml:space="preserve" fill="#929292">
<circle style="fill:none;stroke:#929292;stroke-width:2;stroke-linejoin:round;stroke-miterlimit:10" cx="17.5" cy="8.5" r="3.5" fill="#929292"/>
<path style="fill:none;stroke:#929292;stroke-width:2;stroke-linejoin:round;stroke-miterlimit:10" d="M16.851,15.41l2.917,5.776  l5.081-0.526c0.96-0.099,1.822,0.589,1.936,1.547v0c0.118,0.982-0.593,1.869-1.576,1.968l-6.13,0.621  c-0.794,0.08-1.56-0.319-1.948-1.016l-1.882-3.375l-2.696,4.885l5.797,5.123c0.311,0.275,0.542,0.628,0.67,1.024l2.448,7.603  c0.39,1.187-0.268,2.464-1.462,2.835h0c-1.176,0.365-2.425-0.289-2.796-1.463l-2.249-7.318l-4.935-3.732v4.661l-5.229,7.12  c-0.701,0.955-2.052,1.142-2.987,0.413l0,0c-0.888-0.693-1.073-1.963-0.418-2.879l4.011-5.614v-6.954  c0-0.788,0.202-1.564,0.586-2.252l4.202-7.531c1.065-1.91,3.462-2.616,5.393-1.59L16.851,15.41z" fill="#929292"/>
<circle style="fill:none;stroke:#929292;stroke-width:2;stroke-linejoin:round;stroke-miterlimit:10" cx="28.467" cy="13.467" r="3.467" fill="#929292"/>
<path style="fill:none;stroke:#929292;stroke-width:2;stroke-linejoin:round;stroke-miterlimit:10" d="M31.024,19.124l-2.648,6.074  l-4.932,2.144c-0.898,0.39-1.293,1.447-0.87,2.33l0,0c0.4,0.836,1.387,1.208,2.239,0.844l5.252-2.246  c0.486-0.208,0.886-0.576,1.133-1.043l2.369-4.47l3.426,3.686l-5.906,4.511c-0.455,0.348-0.765,0.852-0.869,1.415l-1.37,7.382  c-0.188,1.016,0.469,1.996,1.481,2.207h0c1.05,0.219,2.072-0.474,2.259-1.53l1.166-6.599l6.457-4.48l-1.072,5.484  c-0.17,0.869,0.171,1.758,0.879,2.29l5.935,4.466c0.847,0.639,2.053,0.461,2.679-0.395v0c0.611-0.835,0.442-2.004-0.379-2.632  l-5.082-3.866l1.461-6.745c0.351-1.62-0.147-3.307-1.321-4.478l-6.042-6.023c-1.091-1.087-2.829-1.166-4.014-0.182L31.024,19.124z" fill="#929292"/>
</svg>
