<?xml version="1.0" encoding="utf-8"?>
<!-- Generator: Adobe Illustrator 15.0.0, SVG Export Plug-In . SVG Version: 6.00 Build 0)  -->
<!DOCTYPE svg PUBLIC "-//W3C//DTD SVG 1.1//EN" "http://www.w3.org/Graphics/SVG/1.1/DTD/svg11.dtd">
<svg xmlns="http://www.w3.org/2000/svg" xmlns:xlink="http://www.w3.org/1999/xlink" version="1.1" id="Слой_1" x="0px" y="0px" width="50px" height="50px" viewBox="0 0 50 50" enable-background="new 0 0 50 50" xml:space="preserve" fill="#0076ff">
<path fill="none" stroke="#0076ff" stroke-width="4" stroke-linecap="round" stroke-linejoin="round" stroke-miterlimit="10" d="  M45,3c-0.596-0.597-2.737-1.737-3.922-0.552c0,0-0.621,1.088-0.428,1.639c1.066,3.033,7.285,18.645,1.123,24.804  c-2.668,2.67-7.36,3.682-7.36,3.682l-1.84,1.84c0,0-0.952,4.633-3.681,7.361c-6.884,6.883-21.506,0.416-24.467-0.877  c-0.575-0.251-1.239-0.119-1.682,0.323c0,0-1.781,1.269,0.256,3.78"/>
<path d="M6.026,37.23c0.426,0.186,0.841,0.353,1.259,0.525L37.601,7.441c-0.147-0.425-0.302-0.859-0.463-1.303l-0.094-0.262  L5.782,37.138C5.863,37.169,5.946,37.195,6.026,37.23z" fill="#0076ff"/>
</svg>
