<?xml version="1.0" encoding="utf-8"?>
<!-- Generator: Adobe Illustrator 15.0.0, SVG Export Plug-In . SVG Version: 6.00 Build 0)  -->
<!DOCTYPE svg PUBLIC "-//W3C//DTD SVG 1.1//EN" "http://www.w3.org/Graphics/SVG/1.1/DTD/svg11.dtd">
<svg xmlns="http://www.w3.org/2000/svg" xmlns:xlink="http://www.w3.org/1999/xlink" version="1.1" id="Слой_1" x="0px" y="0px" width="50px" height="50px" viewBox="0 0 50 50" enable-background="new 0 0 50 50" xml:space="preserve" fill="#0076ff">
<path d="M31.014,5.013c0,2.761,2.237,5.001,4.998,5.001c2.765,0,5.002-2.24,5.002-5.001c0-2.759-2.237-4.999-5.002-4.999  C33.251,0.014,31.014,2.254,31.014,5.013z" fill="#0076ff"/>
<path d="M34.842,31.451l-6.904-4.73l7.025-11.254c0.402-0.6,0.682-2.203,0.083-2.607L31.1,10.211  c-0.274-0.236-0.604-0.417-0.983-0.5l-7.892-1.716c-0.609-0.126-1.24-0.007-1.754,0.339l-7.276,5.57  c-1.066,0.923-2.088,2.077-1.385,3.115c0.451,0.671,1.991,0.289,2.799-0.202l7.598-4.174l4.483,0.977l-6.046,8.986  c-1.387,2.401-1.848,4.252,0.647,6.377l8.594,5.684l-4.182,9.905c-1.355,3.251-1.112,4.918-0.184,5.312  c0.928,0.393,2.293-0.06,4.222-3.597l6.052-11.476C36.328,33.609,35.928,32.197,34.842,31.451z" fill="#0076ff"/>
<g fill="#0076ff">
	<path d="M20.187,30.65l-0.101-0.066l-0.092-0.079c-0.874-0.744-1.457-1.496-1.844-2.235l-2.893,4.185c0,0-7.834,0.473-10.266,0.614   c-1.86,0.109-2.979,0.805-2.979,2.011s0.942,1.884,3.624,2.099c2.261,0.182,11.028,0.652,11.028,0.652c0.009,0,0.018,0,0.024,0   c0.903,0,1.849-0.479,2.47-1.396l3.093-4.418L20.187,30.65z" fill="#0076ff"/>
</g>
<path d="M45.311,21.291l-6.608-0.474l-1.962-4.446c-0.031,0.056-0.06,0.124-0.093,0.175l-2.758,4.417l0.937,2.247  c0.324,0.728,1.061,1.435,1.852,1.53c0,0,6.561-0.119,8.07-0.202c1.588-0.086,3.365-0.384,3.404-1.471  C48.211,21.509,46.739,21.394,45.311,21.291z" fill="#0076ff"/>
</svg>
