<?xml version="1.0" encoding="utf-8"?>
<!-- Generator: Adobe Illustrator 19.1.1, SVG Export Plug-In . SVG Version: 6.00 Build 0)  -->
<svg xmlns="http://www.w3.org/2000/svg" xmlns:xlink="http://www.w3.org/1999/xlink" version="1.1" id="Layer_1" x="0px" y="0px" viewBox="0 0 50 50" enable-background="new 0 0 50 50" xml:space="preserve" fill="#0076ff">
<path d="M42.048,17.693c-0.262,0-0.517-0.103-0.707-0.293L32.6,8.66c-0.262-0.261-0.357-0.646-0.249-0.999  c0.38-1.247,1.069-2.394,1.992-3.317c3.119-3.119,8.195-3.119,11.314,0c3.119,3.119,3.119,8.194,0,11.313  c-0.923,0.923-2.07,1.612-3.318,1.992C42.243,17.679,42.146,17.693,42.048,17.693z" fill="#0076ff"/>
<line fill="none" stroke="#0076ff" stroke-width="2" stroke-linecap="round" stroke-linejoin="round" stroke-miterlimit="10" x1="28.095" y1="21.905" x2="37.64" y2="12.36"/>
<path d="M27.385,21.202c0.267-0.271,0.647-0.343,0.987-0.244l-6.846-6.846l12.176-5.242c0.507-0.218,0.741-0.807,0.523-1.314  c-0.219-0.508-0.811-0.741-1.314-0.523L2.604,20.082C2.238,20.239,2,20.601,2,21c0,2.848,1.304,5.157,2.274,6.486l18.467-10.972  c0.474-0.283,1.088-0.126,1.371,0.349c0.282,0.475,0.125,1.088-0.349,1.371L5.08,29.333c0.544,5.087,4.123,7.29,6.215,8.154  L27.385,21.202z" fill="#0076ff"/>
<line fill="none" stroke="#0076ff" stroke-width="2" stroke-linecap="round" stroke-linejoin="round" stroke-miterlimit="10" x1="32.77" y1="26.465" x2="39.64" y2="15.36"/>
<path d="M42.443,15.774c-0.507-0.219-1.096,0.016-1.314,0.523l-5.242,12.176l-6.846-6.846c0.098,0.337,0.03,0.713-0.235,0.98  L12.818,38.792c1.155,1.95,3.68,5.32,7.621,6.055l11.304-18.573c0.287-0.472,0.901-0.623,1.374-0.334  c0.473,0.287,0.622,0.902,0.335,1.374L22.33,45.584C23.621,46.563,26.014,48,29,48c0.399,0,0.761-0.237,0.919-0.604l13.048-30.307  C43.185,16.581,42.95,15.993,42.443,15.774z" fill="#0076ff"/>
<line fill="none" stroke="#0076ff" stroke-width="2" stroke-linecap="round" stroke-linejoin="round" stroke-miterlimit="10" x1="23.643" y1="17.11" x2="34.64" y2="10.36"/>
<line fill="none" stroke="#0076ff" stroke-width="2" stroke-linecap="round" stroke-linejoin="round" stroke-miterlimit="10" x1="19.814" y1="13.814" x2="36.206" y2="30.206"/>
<line fill="none" stroke="#0076ff" stroke-width="2" stroke-linecap="round" stroke-linejoin="round" stroke-miterlimit="10" x1="26.803" y1="10.803" x2="39.223" y2="23.223"/>
</svg>
