<?xml version="1.0" encoding="utf-8"?>
<!-- Generator: Adobe Illustrator 15.0.0, SVG Export Plug-In . SVG Version: 6.00 Build 0)  -->
<!DOCTYPE svg PUBLIC "-//W3C//DTD SVG 1.1//EN" "http://www.w3.org/Graphics/SVG/1.1/DTD/svg11.dtd">
<svg xmlns="http://www.w3.org/2000/svg" xmlns:xlink="http://www.w3.org/1999/xlink" version="1.1" id="Слой_1" x="0px" y="0px" width="50px" height="50px" viewBox="0 0 50 50" enable-background="new 0 0 50 50" xml:space="preserve" fill="#0076ff">
<g fill="#0076ff">
	<path d="M19.458,10.263c0.317-1.173,1.098-2.434,2.234-3.57c1.062-1.062,2.288-1.788,3.644-2.158   c0.064-0.015,0.642-0.143,1.411-0.252c-0.557-1.86-1.993-3.339-3.824-3.961c-0.192,0.844-0.366,1.368-0.376,1.399   c-0.323,1.189-1.103,2.45-2.24,3.586c-1.136,1.137-2.396,1.917-3.644,2.258c-0.086,0.029-0.632,0.207-1.336,0.372   c0.607,1.773,2.02,3.174,3.803,3.761C19.268,10.817,19.446,10.298,19.458,10.263z" fill="#0076ff"/>
	<path d="M16.083,5.651c0.965-0.265,1.918-0.868,2.81-1.758c0.891-0.891,1.493-1.844,1.742-2.756c0.013-0.042,0.151-0.46,0.31-1.134   c-3.269,0.03-5.92,2.684-5.943,5.955C15.462,5.844,15.866,5.724,16.083,5.651z" fill="#0076ff"/>
	<path d="M25.821,6.475c-0.975,0.267-1.901,0.819-2.714,1.632c-0.891,0.891-1.493,1.844-1.742,2.756   c-0.015,0.046-0.148,0.451-0.256,1.131c3.168-0.057,5.737-2.579,5.878-5.726C26.322,6.364,25.83,6.473,25.821,6.475z" fill="#0076ff"/>
</g>
<path d="M7.244,46.882l-4.119-4.119c-0.7-0.7-1.9-0.7-2.6,0l0,0c-0.7,0.7-0.7,1.899,0,2.6l4.119,4.119c0.7,0.7,1.9,0.7,2.6,0l0,0  C7.944,48.781,7.944,47.581,7.244,46.882z" fill="#0076ff"/>
<g fill="#0076ff">
	<path d="M49.003,2.305c-1.075-1.473-2.714-2.318-4.494-2.318c-1.485,0-2.893,0.589-3.962,1.659l-12.4,12.4   c-2.044,2.044-5.054,6.069-8.24,10.331c-3.435,4.594-6.987,9.345-9.66,12.069l-5.305,5.306l3.407,3.407l5.308-5.309   c2.759-2.813,7.693-6.503,12.465-10.071c4.092-3.061,7.956-5.951,9.932-7.926l12.2-12.201C50.281,7.625,50.598,4.537,49.003,2.305z   " fill="#0076ff"/>
</g>
</svg>
