<?xml version="1.0" encoding="utf-8"?>
<!-- Generator: Adobe Illustrator 15.0.0, SVG Export Plug-In . SVG Version: 6.00 Build 0)  -->
<!DOCTYPE svg PUBLIC "-//W3C//DTD SVG 1.1//EN" "http://www.w3.org/Graphics/SVG/1.1/DTD/svg11.dtd">
<svg xmlns="http://www.w3.org/2000/svg" xmlns:xlink="http://www.w3.org/1999/xlink" version="1.1" id="Слой_1" x="0px" y="0px" width="50px" height="50px" viewBox="0 0 50 50" enable-background="new 0 0 50 50" xml:space="preserve" fill="#0076ff">
<path d="M24.1,10.005c-2.757,0-5-2.243-5-5s2.243-5,5-5s5,2.243,5,5S26.856,10.005,24.1,10.005z" fill="#0076ff"/>
<path d="M18.759,33.044c-0.034-0.048-0.062-0.098-0.095-0.146l-1.562,14.325c-0.061,0.665,0.138,1.316,0.56,1.836  c0.427,0.524,1.028,0.847,1.738,0.909h0.2c1.253,0,2.374-1.01,2.497-2.244l0.962-8.643L18.759,33.044z" fill="#0076ff"/>
<path d="M27.395,28.756l-2.719,0.499c-0.282,0.055-0.572,0.083-0.862,0.083c-1.968,0-3.739-1.324-4.304-3.205l-1.01-3.273v2.94  c0,2.23,0.654,4.336,1.893,6.09l5.107,7.171v8.408c0,1.379,1.121,2.5,2.5,2.5s2.5-1.121,2.5-2.5V37.9  c0-0.055-0.009-0.11-0.027-0.162L27.395,28.756z" fill="#0076ff"/>
<path d="M36.938,18.063c-2.206,0-4,1.794-4,4s1.794,4,4,4s4-1.794,4-4S39.144,18.063,36.938,18.063z" fill="#0076ff"/>
<path d="M30.959,22.483l-2.811,0.518l0,0l-2.958,0.545c-0.061,0.011-0.122,0.017-0.182,0.017c-0.445,0-0.847-0.298-0.965-0.742  l-1.2-4.5c-0.03-0.112-0.028-0.223-0.02-0.332c0.004-0.044,0.008-0.088,0.019-0.13c0.009-0.043,0.028-0.083,0.043-0.125  c0.046-0.119,0.109-0.231,0.195-0.327l0,0c0.125-0.14,0.277-0.258,0.472-0.31c0.536-0.141,1.082,0.175,1.224,0.708l0.961,3.607  l2.763-0.509V17c0-3.084-2.416-5.5-5.5-5.5h-1c-1.962,0-3.5,1.538-3.5,3.5v0.998l0.021,0.071c0.004,0.026-0.007,0.052,0.001,0.079  l2.898,9.396c0.317,1.057,1.301,1.794,2.393,1.794c0.16,0,0.322-0.016,0.477-0.046l7.981-1.466  C31.521,24.898,31.047,23.744,30.959,22.483z" fill="#0076ff"/>
</svg>
