<?xml version="1.0" encoding="utf-8"?>
<!-- Generator: Adobe Illustrator 15.0.0, SVG Export Plug-In . SVG Version: 6.00 Build 0)  -->
<!DOCTYPE svg PUBLIC "-//W3C//DTD SVG 1.1//EN" "http://www.w3.org/Graphics/SVG/1.1/DTD/svg11.dtd">
<svg xmlns="http://www.w3.org/2000/svg" xmlns:xlink="http://www.w3.org/1999/xlink" version="1.1" id="Слой_1" x="0px" y="0px" width="50px" height="50px" viewBox="0 0 50 50" enable-background="new 0 0 50 50" xml:space="preserve" fill="#0076ff">
<path d="M27.6,0C15.39,0,10.914,2.857,10.364,11.483c0.435,7.617,2.61,12.626,3.624,14.949c0.134,0.307,0.248,0.569,0.338,0.788  c0.209,0.512-0.036,1.096-0.547,1.305C13.655,28.576,13.526,28.6,13.4,28.6c-0.394,0-0.768-0.234-0.926-0.621  c-0.084-0.208-0.193-0.456-0.32-0.746c-0.944-2.167-2.856-6.568-3.58-13.144c-1.684,0.23-3.268,1.186-4.282,2.676  c-0.935,1.374-2.22,4.396-0.327,9.19c4.44,11.657,9.672,13.396,12.797,14.435c0.354,0.117,0.679,0.225,0.966,0.338  c1.336,0.534,4.155,0.646,6.284,0.646c3.595,0,13.424-0.498,15.695-2.768C43.614,34.701,45,22.641,45,13.5C45,3.28,40.771,0,27.6,0z  " fill="#0076ff"/>
<g fill="#0076ff">
	<path d="M24.012,43.375c-5.052,0-6.538-0.594-7.018-0.786c-0.248-0.098-0.528-0.189-0.864-0.301   c-0.215-0.071-0.443-0.147-0.681-0.229c0.669,3.724,1.199,5.305,1.972,6.077C18.952,49.547,21.644,50,28.5,50   c7.157,0,10.164-0.691,11.079-2.523c0.826-1.525,1.171-4.748,1.315-7.271C37.437,43.212,26.262,43.375,24.012,43.375z" fill="#0076ff"/>
</g>
</svg>
