<?xml version="1.0" encoding="utf-8"?>
<!-- Generator: Adobe Illustrator 15.0.0, SVG Export Plug-In . SVG Version: 6.00 Build 0)  -->
<!DOCTYPE svg PUBLIC "-//W3C//DTD SVG 1.1//EN" "http://www.w3.org/Graphics/SVG/1.1/DTD/svg11.dtd">
<svg xmlns="http://www.w3.org/2000/svg" xmlns:xlink="http://www.w3.org/1999/xlink" version="1.1" id="Слой_1" x="0px" y="0px" width="50px" height="50px" viewBox="0 0 50 50" enable-background="new 0 0 50 50" xml:space="preserve" fill="#0076ff">
<g fill="#0076ff">
	<path d="M34.604,49.578c-4.249,0-8.617-2.32-12.842-4.563C17.874,42.95,14.203,41,11,41c-6.308,0-8.97,6.02-9.081,6.276   c-0.219,0.506-0.808,0.744-1.312,0.524c-0.507-0.217-0.744-0.802-0.528-1.31C0.21,46.186,3.352,39,11,39   c3.701,0,7.586,2.063,11.699,4.248c4.009,2.129,8.153,4.33,11.904,4.33c8.764,0,13.569-5.859,13.616-5.919   c0.347-0.432,0.976-0.499,1.406-0.154c0.431,0.346,0.5,0.976,0.154,1.406C49.562,43.184,44.316,49.578,34.604,49.578z" fill="#0076ff"/>
</g>
<circle cx="28.5" cy="27.5" r="4.5" fill="#0076ff"/>
<path d="M34.583,16.907c-2.205,0-4.071-2.253-5.082-4.362c-1.197-2.494-2.016-5.703-2.05-5.838l-0.242-0.961l9.266-2.431l0.31,0.86  c0.051,0.14,1.236,3.463,1.249,6.348c0.008,1.973,0.022,5.645-2.739,6.301C35.062,16.879,34.823,16.907,34.583,16.907z" fill="#0076ff"/>
<path d="M40.528,38.823c-0.453,0-0.863-0.31-0.973-0.771l-5.17-21.906c-0.127-0.537,0.206-1.076,0.744-1.203  c0.536-0.131,1.075,0.206,1.203,0.744l5.17,21.906c0.127,0.537-0.206,1.076-0.744,1.203C40.682,38.814,40.604,38.823,40.528,38.823z  " fill="#0076ff"/>
<path d="M38.931,49.16l-0.263-1.251c-1.597-7.603,0.193-9.607,0.958-10.464c0.042-0.048,0.08-0.087,0.106-0.123l0.409-0.745  l0.774,0.325c4.999,1.765,6.287,7.148,6.34,7.377l0.179,0.777L38.931,49.16z" fill="#0076ff"/>
<path d="M23.354,39.467c-0.088-1.326,1.455-3.139,1.455-3.139s3.677,1.82,8.113,1.82c1.542,0,2.903-0.138,4.045-0.313  c0.107-0.22,0.22-0.426,0.337-0.616l-0.688-2.921c-1.042,0.246-2.341,0.444-3.83,0.444c-1.11,0-2.205-0.35-3.204-0.84  C29.229,33.962,28.869,34,28.5,34c-3.584,0-6.5-2.916-6.5-6.5c0-3.511,2.8-6.374,6.284-6.489c1.265-0.842,2.791-1.392,4.785-1.737  l-0.15-0.637c-1.534-0.49-2.747-1.591-3.63-2.695c-3.877,1.122-9.949,3.875-11.282,10.278c-7.112,4.781-7.877,13.478-7.877,13.478  l23.899,8.79C34.029,48.488,30.672,41.575,23.354,39.467z" fill="#0076ff"/>
</svg>
