<?xml version="1.0" encoding="utf-8"?>
<!-- Generator: Adobe Illustrator 15.0.0, SVG Export Plug-In . SVG Version: 6.00 Build 0)  -->
<!DOCTYPE svg PUBLIC "-//W3C//DTD SVG 1.1//EN" "http://www.w3.org/Graphics/SVG/1.1/DTD/svg11.dtd">
<svg xmlns="http://www.w3.org/2000/svg" xmlns:xlink="http://www.w3.org/1999/xlink" version="1.1" id="Слой_1" x="0px" y="0px" width="50px" height="50px" viewBox="0 0 50 50" enable-background="new 0 0 50 50" xml:space="preserve" fill="#0076ff">
<path d="M20.6,40.55c-0.687,0-1.328-0.264-1.808-0.743l-8.6-8.6C9.714,30.729,9.45,30.087,9.45,29.4s0.264-1.328,0.743-1.808  l26.8-26.898c0.033-0.034,0.069-0.066,0.108-0.094c0.14-0.105,0.906-0.628,2.267-0.628c2.136,0,4.471,1.252,6.939,3.721  c5.649,5.648,3.2,9.064,3.093,9.207c-0.028,0.039-0.061,0.075-0.094,0.108l-26.9,26.799C21.928,40.286,21.287,40.55,20.6,40.55z" fill="#0076ff"/>
<path d="M10.516,34.359c-0.122,0.188-0.26,0.37-0.423,0.533l-9.4,9.4C0.221,44.765-0.05,45.441-0.05,46.15  c0,0.708,0.271,1.385,0.743,1.856l1.3,1.299c0.472,0.474,1.149,0.744,1.857,0.744c0.708,0,1.385-0.271,1.857-0.743l9.4-9.399  c0.167-0.166,0.346-0.305,0.532-0.426L10.516,34.359z" fill="#0076ff"/>
<g fill="#0076ff">
	<path d="M15.894,6.479c2.241,2.156,4.856,2.052,5.763,1.503C21.875,7.361,22,6.696,22,6c0-3.309-2.691-6-6-6   c-0.438,0-0.863,0.05-1.274,0.139C13.969,1.141,13.548,4.224,15.894,6.479z" fill="#0076ff"/>
	<path d="M19.502,10.095c-1.594,0-3.35-0.591-4.996-2.174c-2.058-1.979-2.55-4.5-2.212-6.631C10.9,2.39,10,4.09,10,6   c0,3.309,2.691,6,6,6c1.736,0,3.298-0.746,4.395-1.929C20.095,10.086,19.794,10.095,19.502,10.095z" fill="#0076ff"/>
</g>
</svg>
