<?xml version="1.0" encoding="utf-8"?>
<!-- Generator: Adobe Illustrator 15.0.0, SVG Export Plug-In . SVG Version: 6.00 Build 0)  -->
<!DOCTYPE svg PUBLIC "-//W3C//DTD SVG 1.1//EN" "http://www.w3.org/Graphics/SVG/1.1/DTD/svg11.dtd">
<svg xmlns="http://www.w3.org/2000/svg" xmlns:xlink="http://www.w3.org/1999/xlink" version="1.1" id="Слой_1" x="0px" y="0px" width="50px" height="50px" viewBox="0 0 50 50" enable-background="new 0 0 50 50" xml:space="preserve" fill="#0076ff">
<path d="M40,50c-5.514,0-10-4.486-10-10s4.486-10,10-10s10,4.486,10,10S45.514,50,40,50z M40,32c-4.411,0-8,3.589-8,8s3.589,8,8,8  s8-3.589,8-8S44.411,32,40,32z" fill="#0076ff"/>
<path d="M10,50C4.486,50,0,45.514,0,40s4.486-10,10-10s10,4.486,10,10S15.514,50,10,50z M10,32c-4.411,0-8,3.589-8,8s3.589,8,8,8  s8-3.589,8-8S14.411,32,10,32z" fill="#0076ff"/>
<circle cx="37.5" cy="10.5" r="4.5" fill="#0076ff"/>
<path d="M44,21h-8c0,0-4.082-5.896-4.938-7.188C30.172,12.469,28.923,12,27.538,12c-1.413,0-3.376,1.369-5.54,2.966  c-2.652,1.957-4.734,3.587-6.007,4.625C15.376,20.094,14,21.519,14,23.84c0,2.321,2.601,3.743,4.504,4.93  c1.99,1.239,5.082,3.183,5.082,3.183l-1.31,10.672c0,0-0.015,2.092,1.817,2.337c1.833,0.245,2.394-1.702,2.394-1.702  s1.721-9.784,1.973-11.358c0.261-1.621,0.647-2.699-1.222-4.03c-1.843-1.313-5.066-3.053-5.066-3.053s6.143-4.752,6.549-4.98  c0.461-0.26,0.836-0.721,1.297-0.115c0.475,0.622,3.635,4.788,3.635,4.788S34.145,25,35.355,25C36.943,25,44,25,44,25  c1.02,0,2-0.98,2-2S45.02,21,44,21z" fill="#0076ff"/>
</svg>
