<?xml version="1.0" encoding="utf-8"?>
<!-- Generator: Adobe Illustrator 19.1.1, SVG Export Plug-In . SVG Version: 6.00 Build 0)  -->
<svg xmlns="http://www.w3.org/2000/svg" xmlns:xlink="http://www.w3.org/1999/xlink" version="1.1" id="Layer_1" x="0px" y="0px" viewBox="0 0 50 50" enable-background="new 0 0 50 50" xml:space="preserve" fill="#0076ff">
<polygon points="47,7 43,7 43,3 38,8 38,10.6 24.3,24.3 25.7,25.7 39.4,12 42,12 " fill="#0076ff"/>
<path d="M25,28c-1.7,0-3-1.3-3-3c0-0.8,0.3-1.6,0.9-2.1l6-6C27.7,16.3,26.4,16,25,16c-5,0-9,4-9,9c0,5,4,9,9,9s9-4,9-9  c0-1.4-0.3-2.7-0.9-3.9l-6,6C26.6,27.7,25.8,28,25,28z" fill="#0076ff"/>
<path d="M43.4,13.4L42.8,14H42h-1.8l-2,2c1.7,2.6,2.8,5.7,2.8,9c0,8.8-7.2,16-16,16S9,33.8,9,25S16.2,9,25,9c3.3,0,6.4,1,9,2.8l2-2  V8V7.2l0.6-0.6L38.2,5C34.4,2.5,29.9,1,25,1C11.7,1,1,11.7,1,25s10.7,24,24,24s24-10.7,24-24c0-4.9-1.5-9.4-4-13.2L43.4,13.4z" fill="#0076ff"/>
<circle cx="25" cy="25" r="1" fill="#0076ff"/>
</svg>
