<?xml version="1.0" encoding="utf-8"?>
<!-- Generator: Adobe Illustrator 15.0.0, SVG Export Plug-In . SVG Version: 6.00 Build 0)  -->
<!DOCTYPE svg PUBLIC "-//W3C//DTD SVG 1.1//EN" "http://www.w3.org/Graphics/SVG/1.1/DTD/svg11.dtd">
<svg xmlns="http://www.w3.org/2000/svg" xmlns:xlink="http://www.w3.org/1999/xlink" version="1.1" id="Слой_1" x="0px" y="0px" width="50px" height="50px" viewBox="0 0 50 50" enable-background="new 0 0 50 50" xml:space="preserve" fill="#0076ff">
<circle cx="26" cy="6" r="5" fill="#0076ff"/>
<path d="M19,26c-6.617,0-12,5.383-12,12s5.383,12,12,12s12-5.383,12-12S25.617,26,19,26z M19,40c-1.104,0-2-0.896-2-2s0.896-2,2-2  s2,0.896,2,2S20.104,40,19,40z" fill="#0076ff"/>
<g fill="#0076ff">
	<path d="M12.387,25.666l1.282-4.465l6.731-2.7l-0.79,5.531c3.119,0.135,5.98,1.281,8.247,3.137L29.1,18.3   c0.4-2.8-1.699-5.3-4.6-5.3h-3.309c-0.4,0-0.8,0.1-1.2,0.3l-8.696,3.9c-0.7,0.3-1.1,0.9-1.3,1.6l-2.422,8.8   c-0.17,0.624,0.022,1.274,0.432,1.762C9.195,27.85,10.682,26.584,12.387,25.666z" fill="#0076ff"/>
	<path d="M42.164,42.514L37.6,30.6C37.2,29.7,36.3,29,35.3,29h-5.592c1.435,1.703,2.467,3.751,2.96,6H33.6l3.864,9.214   c0.4,1.101,1.601,1.9,2.801,1.7C41.864,45.614,42.765,44.014,42.164,42.514z" fill="#0076ff"/>
</g>
<g fill="#0076ff">
	<path d="M42,47h-4.586l-5.003-5.003c-0.21,0.704-0.482,1.38-0.796,2.032l4.678,4.678C36.48,48.895,36.734,49,37,49h5   c0.553,0,1-0.447,1-1S42.553,47,42,47z" fill="#0076ff"/>
</g>
</svg>
