<?xml version="1.0" encoding="utf-8"?>
<!-- Generator: Adobe Illustrator 19.1.1, SVG Export Plug-In . SVG Version: 6.00 Build 0)  -->
<svg xmlns="http://www.w3.org/2000/svg" xmlns:xlink="http://www.w3.org/1999/xlink" version="1.1" id="Layer_1_copy" x="0px" y="0px" viewBox="0 0 50 50" enable-background="new 0 0 50 50" xml:space="preserve" fill="#0076ff">
<path fill="#0076ff" d="M21.5,16C19,16,17,14,17,11.5S19,7,21.5,7S26,9,26,11.5S24,16,21.5,16z"/>
<path fill="#0076ff" d="M6,48c-1.7,0-3-1.3-3-3v-8.7c0-1.6,0.7-3.1,1.9-4.2l4.9-3.8l1.8-7.3l-4.3-9.2c-0.4-0.9-0.4-2,0.1-2.9  l3.2-6.5c0.6-1.2,2.1-1.8,3.3-1.2l0,0C14.5,1.5,15,2,15.2,2.6c0.2,0.6,0.2,1.3-0.1,1.9l-2.7,5.6l3,4.9l7.8,3.4l6,3.9l6.4-0.6  c1.3-0.1,2.6,0.8,2.8,2.1c0.1,0.7-0.1,1.4-0.5,1.9c-0.4,0.6-1,0.9-1.7,1l-7.7,0.8c-0.8,0.1-1.6-0.1-2.3-0.5l-4.5-2.8l-1.6,6L35,43.1  c0.6,0.5,0.9,1.1,1,1.9s-0.2,1.5-0.7,2.1c-1,1.1-2.6,1.2-3.7,0.4L14.4,33.6L9,37.3V45C9,46.6,7.7,48,6,48z"/>
<path fill="#0076ff" d="M46.4,10.3l-29-6.9c0,0.7-0.1,1.3-0.4,2l29,6.9c0.1,0,0.2,0,0.2,0c0.5,0,0.9-0.3,1-0.8  C47.3,11,46.9,10.4,46.4,10.3z"/>
<path fill="#0076ff" d="M7.3,3.1L8,3.2l0.8-1.7c0-0.1,0.1-0.1,0.1-0.2L7.8,1.1C7.2,1,6.7,1.3,6.6,1.9C6.4,2.4,6.8,2.9,7.3,3.1z"/>
</svg>
