<?xml version="1.0" encoding="utf-8"?>
<!-- Generator: Adobe Illustrator 15.0.0, SVG Export Plug-In . SVG Version: 6.00 Build 0)  -->
<!DOCTYPE svg PUBLIC "-//W3C//DTD SVG 1.1//EN" "http://www.w3.org/Graphics/SVG/1.1/DTD/svg11.dtd">
<svg xmlns="http://www.w3.org/2000/svg" xmlns:xlink="http://www.w3.org/1999/xlink" version="1.1" id="Слой_1" x="0px" y="0px" width="50px" height="50px" viewBox="0 0 50 50" enable-background="new 0 0 50 50" xml:space="preserve" fill="#0076ff">
<path d="M25,1C11.767,1,1,11.767,1,25s10.767,24,24,24s24-10.767,24-24S38.233,1,25,1z M44.022,36.031l-8.419,1.939l-3.128-3.491  l3.487-10.77l5.375-2.888l5.551,6.389C46.569,30.4,45.561,33.389,44.022,36.031z M14.452,37.975l-8.48-1.953  c-1.526-2.624-2.529-5.587-2.855-8.751l5.617-6.466l5.247,2.564l3.601,11.111L14.452,37.975z M41.38,10.333l-0.76,8.604  l-5.051,2.713l-9.544-6.956V8.166l7.782-3.32C36.712,6.12,39.291,8.002,41.38,10.333z M16.219,4.834l7.807,3.332v6.529l-9.327,6.799  l-5.27-2.576l-0.764-8.638C10.753,7.966,13.325,6.099,16.219,4.834z M20.41,46.515l-4.371-7.313l3.118-3.482H30.9l3.117,3.479  l-4.357,7.302C28.157,46.824,26.599,47,25,47C23.426,47,21.892,46.83,20.41,46.515z" fill="#0076ff"/>
</svg>
