<?xml version="1.0" encoding="utf-8"?>
<!-- Generator: Adobe Illustrator 15.0.0, SVG Export Plug-In . SVG Version: 6.00 Build 0)  -->
<!DOCTYPE svg PUBLIC "-//W3C//DTD SVG 1.1//EN" "http://www.w3.org/Graphics/SVG/1.1/DTD/svg11.dtd">
<svg xmlns="http://www.w3.org/2000/svg" xmlns:xlink="http://www.w3.org/1999/xlink" version="1.1" id="Слой_1" x="0px" y="0px" width="50px" height="50px" viewBox="0 0 50 50" enable-background="new 0 0 50 50" xml:space="preserve" fill="#0076ff">
<path d="M30.628,49.999c-1.607,0-2.938-0.686-3.651-1.882l-0.095-0.157c-4.298-7.038-3.905-15.384-2.817-21.146  c0.09-0.482,0.521-0.819,1.008-0.814c0.49,0.013,0.899,0.379,0.965,0.865c1.179,8.677,2.485,15.673,7.568,20.194  c0.068,0.062,0.129,0.132,0.178,0.209c0.271,0.425,0.286,0.946,0.04,1.395C33.321,49.581,31.814,49.999,30.628,49.999z" fill="#0076ff"/>
<path d="M9.732,39.991c-3.91,0-5.961-3.147-6.53-5.843c-0.345-1.633-0.227-3.153-0.141-4.263c0.047-0.605,0.091-1.178,0.032-1.46  c-0.053-0.252-0.221-0.515-0.454-0.878c-0.426-0.668-1.01-1.583-1.39-3.221c-0.508-2.194-0.227-3.983,0.834-5.318  c1.488-1.872,3.898-2.074,4.865-2.074c4.55,0,8.91,2.379,12.093,4.117c0.874,0.477,1.827,0.997,2.497,1.284  c-0.425-0.646-1.175-1.565-1.817-2.353C17.044,16.7,12.998,11.74,12.998,6.05c0-4.167,4.359-6.042,7.455-6.042  c1.671,0,2.742,0.29,3.525,0.501c0.884,0.24,1.306,0.236,2.182,0c0.782-0.211,1.854-0.501,3.525-0.501  c4.319,0,7.455,2.341,7.455,5.567c0,4.96-3.837,10.138-6.638,13.918c-0.648,0.875-1.399,1.888-1.861,2.622  c0.67-0.321,1.564-0.837,2.339-1.284c3.181-1.837,7.537-4.354,12.082-4.354c2.46,0,3.837,1.061,4.56,1.951  c1.457,1.796,1.566,4.379,1.184,6.198c-0.348,1.649-0.906,2.613-1.313,3.316c-0.227,0.392-0.39,0.675-0.446,0.94  c-0.058,0.277-0.017,0.746,0.031,1.289c0.087,0.987,0.206,2.339-0.141,3.979c-0.53,2.518-2.978,4.416-5.693,4.416l0,0  c-0.646,0-1.286-0.106-1.905-0.316c-3.373-1.143-6.187-3.865-8.669-6.267c-2.122-2.053-4.126-3.991-5.622-3.991  c-0.58,0.032-2.151,1.995-3.299,3.428c-2.54,3.172-6.018,7.517-10.448,8.408C10.764,39.937,10.236,39.991,9.732,39.991z" fill="#0076ff"/>
</svg>
