<?xml version="1.0" encoding="utf-8"?>
<!-- Generator: Adobe Illustrator 15.0.0, SVG Export Plug-In . SVG Version: 6.00 Build 0)  -->
<!DOCTYPE svg PUBLIC "-//W3C//DTD SVG 1.1//EN" "http://www.w3.org/Graphics/SVG/1.1/DTD/svg11.dtd">
<svg xmlns="http://www.w3.org/2000/svg" xmlns:xlink="http://www.w3.org/1999/xlink" version="1.1" id="Слой_1" x="0px" y="0px" width="50px" height="50px" viewBox="0 0 50 50" enable-background="new 0 0 50 50" xml:space="preserve" fill="#0076ff">
<path fill="none" stroke="#0076ff" stroke-width="2" stroke-linecap="round" stroke-linejoin="round" stroke-miterlimit="10" d="  M13,13.3C13,5,18,1.9,18,1.9"/>
<path fill="none" stroke="#0076ff" stroke-width="2" stroke-linecap="round" stroke-linejoin="round" stroke-miterlimit="10" d="  M13,1.9c0,0-6,5.3-7,14.1"/>
<g fill="#0076ff">
	<path d="M45.168,45.624l-5.824-15.555l-1.17,7.688c-0.03,0.213-0.088,0.422-0.174,0.622l-0.752,1.767l2.777,7.512   c0.363,1.088,1.37,1.818,2.506,1.818c0.361,0,0.719-0.072,1.027-0.202c0.696-0.232,1.253-0.738,1.565-1.426   C45.446,47.141,45.46,46.324,45.168,45.624z" fill="#0076ff"/>
</g>
<path d="M26.6,0.033c-1.646,0-3.241,0.671-4.373,1.842c-1.101,1.138-1.678,2.621-1.626,4.158c0,3.309,2.691,6,6,6  c3.309,0,6-2.691,6-6C32.6,2.78,29.852,0.033,26.6,0.033z" fill="#0076ff"/>
<path d="M39.891,11.704c-0.686-3.495-2.726-6.377-5.803-8.407C34.412,4.156,34.6,5.076,34.6,6.033c0,0.931-0.203,1.787-0.551,2.567  c0.574,0.687,0.978,1.434,1.159,1.993l-7.374,2.835c-0.932,0.329-1.666,1.005-2.068,1.905c-0.412,0.922-0.422,2-0.031,2.95  l4.17,10.624l0.389,7.599l-3.956,8.803c-0.612,1.47,0.033,3.237,1.452,3.946c0.402,0.186,0.827,0.279,1.264,0.279  c1.189,0,2.289-0.716,2.807-1.837l4.3-10.1c0.017-0.039,0.028-0.08,0.034-0.121l1.401-9.213c0.221-1.766,0.084-3.405-0.419-5.016  l-2.364-7.375l3.611-1.625C39.563,13.677,40.085,12.776,39.891,11.704z" fill="#0076ff"/>
<path d="M22.501,12.89L8.9,18.5C7,19.2,6,21.4,6.7,23.3l0.5,1.4C7.9,26.6,10.1,27.6,12,26.9c0.4-0.2,0.6-0.601,0.5-1l-2.1-4  c-0.3-0.5,0-1.1,0.5-1.4l12.691-4.928c0.082-0.361,0.196-0.715,0.349-1.056c0.127-0.284,0.289-0.545,0.458-0.799  C23.724,13.524,23.089,13.243,22.501,12.89z" fill="#0076ff"/>
</svg>
