<?xml version="1.0" encoding="utf-8"?>
<!-- Generator: Adobe Illustrator 15.0.0, SVG Export Plug-In . SVG Version: 6.00 Build 0)  -->
<!DOCTYPE svg PUBLIC "-//W3C//DTD SVG 1.1//EN" "http://www.w3.org/Graphics/SVG/1.1/DTD/svg11.dtd">
<svg xmlns="http://www.w3.org/2000/svg" xmlns:xlink="http://www.w3.org/1999/xlink" version="1.1" id="Слой_1" x="0px" y="0px" width="50px" height="50px" viewBox="0 0 50 50" enable-background="new 0 0 50 50" xml:space="preserve" fill="#0076ff">
<g fill="#0076ff">
	<circle cx="17" cy="4" r="4" fill="#0076ff"/>
</g>
<g fill="#0076ff">
	<path d="M38,8.5c0,2.5-2,4.5-4.5,4.5S29,11,29,8.5S31,4,33.5,4S38,6,38,8.5z" fill="#0076ff"/>
</g>
<path d="M40.6,23.4L35.2,16.6c-0.3-0.3-0.601-0.6-1-0.8C32.6,15,28.9,13,27.7,12.5c-1.5-0.7-3.2-0.8-3.2-0.8l-6.3-0.5  c0,0-3.9-3.4-5.1-4.3c-2.3-2-4.3-0.2-2.3,2c0.6,0.7,4,4.4,5.3,5.7c0.4,0.4,0.7,0.7,1.2,0.8l4.7,0.8L14.4,28c0,0-2.6,3.7-4.1,6.6  c-1,1.9,1.1,3.4,3.2,1.4c1.4-1.3,8.2-8.2,8.2-8.2s-8.419,17.479-9.019,18.68c-0.5,1-1.5,2.7,0.4,3.4c1.7,0.7,3.2-1.9,3.2-1.9  l16.552-26.396c0,0,3.1,2.6,3.699,3.1c0.7,0.5,0.5,0.9,0.4,1.6c-0.2,0.7-0.941,2.542-1.141,3.342c-0.2,0.7-0.158,1.884,1.108,2.275  S38.8,31.1,39.1,30.4c0.2-0.5,1.2-2.801,1.801-4.7C41,25,41.1,24.1,40.6,23.4z" fill="#0076ff"/>
</svg>
