<?xml version="1.0" encoding="utf-8"?>
<!-- Generator: Adobe Illustrator 15.0.0, SVG Export Plug-In . SVG Version: 6.00 Build 0)  -->
<!DOCTYPE svg PUBLIC "-//W3C//DTD SVG 1.1//EN" "http://www.w3.org/Graphics/SVG/1.1/DTD/svg11.dtd">
<svg xmlns="http://www.w3.org/2000/svg" xmlns:xlink="http://www.w3.org/1999/xlink" version="1.1" id="Слой_1" x="0px" y="0px" width="50px" height="50px" viewBox="0 0 50 50" enable-background="new 0 0 50 50" xml:space="preserve" fill="#0076ff">
<path d="M48.897,0.397C48.708,0.147,48.413,0,48.1,0h-3.8c-0.446,0-0.838,0.295-0.961,0.724l-7.899,27.499  C34.268,32.276,30.635,35,26.4,35H9.5C5.364,35,2,38.364,2,42.5S5.364,50,9.5,50h14.4c6.721,0,12.532-4.388,14.462-10.926  L49.062,1.272C49.147,0.971,49.086,0.646,48.897,0.397z M11,48V37h14v10.954C24.637,47.984,24.27,48,23.9,48H11z" fill="#0076ff"/>
<path d="M13,9C5.956,9,0.568,11.332,0.051,14.5C0.568,17.668,5.956,20,13,20s12.432-2.332,12.949-5.5C25.432,11.332,20.044,9,13,9z" fill="#0076ff"/>
<path d="M13,22c-5.841,0-10.503-1.445-13-3.782V22c0,3.897,6.698,6,13,6s13-2.103,13-6v-3.782C23.503,20.555,18.841,22,13,22z" fill="#0076ff"/>
</svg>
