<?xml version="1.0" encoding="utf-8"?>
<!-- Generator: Adobe Illustrator 19.1.1, SVG Export Plug-In . SVG Version: 6.00 Build 0)  -->
<svg xmlns="http://www.w3.org/2000/svg" xmlns:xlink="http://www.w3.org/1999/xlink" version="1.1" id="Layer_1_copy" x="0px" y="0px" viewBox="0 0 50 50" enable-background="new 0 0 50 50" xml:space="preserve" fill="#0076ff">
<path fill="#0076ff" d="M15,10c-2.2,0-4-1.8-4-4s1.8-4,4-4s4,1.8,4,4S17.2,10,15,10z"/>
<path fill="#0076ff" d="M41,11c-2.2,0-4-1.8-4-4s1.8-4,4-4s4,1.8,4,4S43.2,11,41,11z"/>
<path d="M33.4,9.6C33,8.4,31.8,7.7,30.6,8l-18.7,4.2c-1.1,0.2-2,0.8-2.8,1.6l-5.8,6.4c-0.8,0.9-1,2.2-0.4,3.3  c0.7,1.3,2.2,1.8,3.6,1.3L8,24.2l4.2-1.7c1.1-0.4,1.7-1.7,1.3-2.8c-0.2-0.6-0.6-1-1.2-1.3c-0.3-0.1-0.6-0.2-0.9-0.2  c-0.3,0-0.6,0.1-0.8,0.2l-1.4,0.5c0,0-0.1,0-0.1,0l-0.1,0c0,0,0,0,0,0c0,0-0.1,0-0.1,0c-0.5,0-1-0.4-1-1c0-0.4,0.3-0.8,0.7-0.9  l1.4-0.6c0.5-0.2,1-0.3,1.6-0.3h0c0.6,0,1.2,0.1,1.7,0.4c1.1,0.5,1.9,1.3,2.2,2.4c0.8,2.1-0.3,4.5-2.4,5.3l-5,2l0,8.2l-3,10  c-0.4,1.4,0.3,2.8,1.7,3.3c0.7,0.2,1.4,0.2,2-0.1c0.6-0.3,1.1-0.9,1.3-1.6l2.8-9.5l0.4-6.4l2.8,5.7v9.7c0,1.4,1.1,2.5,2.5,2.5  s2.5-1.1,2.5-2.5V35.3c0-0.6-0.1-1.1-0.3-1.6l-3.3-9.9l2.1-8.1l12.2-3.1c0.6-0.2,1.1-0.6,1.4-1.2S33.6,10.2,33.4,9.6z" fill="#0076ff"/>
<path fill="#0076ff" d="M41.3,30l0.2-0.9c-0.3-0.1-0.5-0.3-0.8-0.5l-3.1-2.4c-0.9-0.7-1.4-1.7-1.6-2.8c-0.1-1.1,0.2-2.2,0.9-3.1  c0.8-1,2-1.6,3.3-1.6h0c0.9,0,1.8,0.3,2.5,0.8l1.2,0.9c0,0,0,0,0,0c0.2,0.2,0.3,0.4,0.3,0.7c0,0.6-0.4,1-1,1c-0.2,0-0.4-0.1-0.5-0.2  c0,0,0,0,0,0l-1.2-0.9c-0.4-0.3-0.8-0.4-1.3-0.4c-0.6,0-1.3,0.3-1.7,0.8c-0.4,0.5-0.5,1-0.5,1.6c0.1,0.6,0.4,1.1,0.8,1.4l3.1,2.4  c0.1,0.1,0.3,0.2,0.5,0.3c0.1,0,0.1,0.1,0.2,0.1c0.1,0,0.2,0.1,0.3,0.1c0.1,0,0.1,0,0.2,0.1c0.1,0,0.2,0,0.3,0.1c0.1,0,0.2,0,0.2,0  c0.1,0,0.2,0,0.3,0c0.5,0,1-0.1,1.4-0.4c0,0,0,0,0,0c0.3-0.2,0.5-0.3,0.8-0.6c0.7-0.8,1-1.8,0.7-2.9l-1.5-6.7  c-0.5-1.8-1.9-3.2-3.7-3.7l-3-0.8c-1.7-0.4-3.4,0-4.7,1.1l-5.8,5.1l-5.9,1.3c-1.2,0.3-2,1.5-1.7,2.7c0.3,1.2,1.4,2,2.6,1.7l6.1-1.2  c0.1,0,0.1,0,0.2-0.1l4.3-2.7l-2.3,7.1l-4,6c-0.4,0.5-0.6,1.1-0.7,1.7L25,45.2c-0.2,1.3,0.6,2.5,1.9,2.7c0.2,0,0.3,0,0.5,0  c0.5,0,1-0.1,1.4-0.4c0.5-0.4,0.9-0.9,1-1.6l1.8-9.1l4.5-5.8l4.1,15c0.2,0.7,0.6,1.2,1.2,1.6c0.6,0.3,1.3,0.4,2,0.2  c1.3-0.4,2.1-1.8,1.8-3.1L41.3,30z"/>
</svg>
