<?xml version="1.0" encoding="utf-8"?>
<!-- Generator: Adobe Illustrator 15.0.0, SVG Export Plug-In . SVG Version: 6.00 Build 0)  -->
<!DOCTYPE svg PUBLIC "-//W3C//DTD SVG 1.1//EN" "http://www.w3.org/Graphics/SVG/1.1/DTD/svg11.dtd">
<svg xmlns="http://www.w3.org/2000/svg" xmlns:xlink="http://www.w3.org/1999/xlink" version="1.1" id="Слой_1" x="0px" y="0px" width="50px" height="50px" viewBox="0 0 50 50" enable-background="new 0 0 50 50" xml:space="preserve" fill="#0076ff">
<g fill="#0076ff">
	<path d="M25,13.063c3.584,0,6.5-2.916,6.5-6.5s-2.916-6.5-6.5-6.5s-6.5,2.916-6.5,6.5S21.416,13.063,25,13.063z" fill="#0076ff"/>
	<path d="M10.732,27.248c0.229,0,0.445-0.047,0.643-0.139c0.816-0.382,1.079-1.528,0.625-2.728   c-0.391-1.031-1.261-2.925-1.729-3.929c1.537-0.111,5.047-0.367,5.92-0.446l0.463-0.042L16.645,19.5   c-0.045-2.56,0.628-5.302,0.635-5.33l0.177-0.712l-0.728,0.096c-0.452,0.06-11.1,1.463-12.555,1.834   c-1.041,0.265-1.459,0.839-1.626,1.274c-0.3,0.782-0.01,1.655,0.361,2.212c0.496,0.744,4.186,5.698,5.312,6.907   C9.114,26.741,9.982,27.248,10.732,27.248z" fill="#0076ff"/>
	<path d="M47.351,14.949c-0.503-1.274-2.213-1.85-3.444-1.059c-1.269,0.815-7.603,5.691-8.964,6.742   c-1.121-0.556-5.319-2.642-7.435-3.733c-0.174-0.09-0.347-0.183-0.521-0.277c-0.998-0.538-2.029-1.094-3.373-1.094   c-1.435,0-2.661,1.061-2.983,2.58c-0.368,1.738,0.648,3.347,2.718,4.302l0.674,0.312c2.364,1.092,4.809,2.222,9.319,4.186   c0.768,0.335,1.24,0.504,1.698,0.504c0.733,0,1.226-0.436,2.119-1.228l0.128-0.113c1.472-1.304,7.24-6.646,9.377-8.639   C47.427,16.72,47.683,15.792,47.351,14.949z" fill="#0076ff"/>
	<path d="M30.793,30.272l-0.398-0.15c-1.132-0.426-2.202-0.828-13.955-5.452l-0.438-0.172l-0.198,0.427   c-0.086,0.185-8.61,18.549-9.552,20.633c-0.914,2.021-0.635,3.433,0.831,4.197c0.343,0.179,0.698,0.27,1.055,0.27   c1.154,0,2.078-0.909,2.904-1.891c0.869-1.031,5.901-8.081,6.715-9.223c1.152-0.316,7.819-2.14,11.633-3.109   c1.833-0.467,3.116-1.718,3.194-3.111C32.643,31.622,31.973,30.718,30.793,30.272z" fill="#0076ff"/>
</g>
</svg>
