<?xml version="1.0" encoding="utf-8"?>
<!-- Generator: Adobe Illustrator 15.0.0, SVG Export Plug-In . SVG Version: 6.00 Build 0)  -->
<!DOCTYPE svg PUBLIC "-//W3C//DTD SVG 1.1//EN" "http://www.w3.org/Graphics/SVG/1.1/DTD/svg11.dtd">
<svg xmlns="http://www.w3.org/2000/svg" xmlns:xlink="http://www.w3.org/1999/xlink" version="1.1" id="Слой_1" x="0px" y="0px" width="50px" height="50px" viewBox="0 0 50 50" enable-background="new 0 0 50 50" xml:space="preserve" fill="#0076ff">
<path d="M19.612,29h10.774l2.562-7.684c0.103-0.305,0.051-0.64-0.137-0.901C32.623,20.154,32.321,20,32,20H18  c-0.321,0-0.623,0.154-0.811,0.416c-0.188,0.261-0.239,0.596-0.138,0.901L19.612,29z" fill="#0076ff"/>
<path d="M20.127,31l2.482,18.136C22.677,49.631,23.1,50,23.6,50h2.9c0.502,0,0.926-0.372,0.991-0.869L29.877,31H20.127z" fill="#0076ff"/>
<path d="M29,16.6c0-2.2-1.4-3.9-2-5.5c-1,1-1.2,4.4-1.2,4.4s-2.5-2.1-0.7-7.7c0,0-4.4,2.2-4.4,6.7c0,1.803,0.802,3.375,1.603,4.5  h5.799C28.572,18.225,29,17.322,29,16.6z" fill="#0076ff"/>
<path d="M18,19h2.448C19.209,18.16,18,16.689,18,14.2c0-5.622,5.156-9.654,7.848-11.375c0.037,1.659,0.521,3.179,1.384,4.215  c0.181,0.216,0.442,0.346,0.724,0.359c0.28,0.01,0.554-0.094,0.752-0.292c0.116-0.116,0.249-0.249,0.394-0.383  c0.156,0.744,0.438,1.415,0.728,2.109C30.377,10.145,31,11.632,31,14.2c0,1.585-0.614,3.644-1.756,4.8h2.495  C32.552,17.603,33,15.873,33,14.2c0-2.97-0.735-4.728-1.327-6.14c-0.458-1.094-0.789-1.885-0.678-2.957  c0.033-0.325-0.094-0.645-0.34-0.858c-0.246-0.214-0.579-0.294-0.898-0.215c-0.577,0.145-1.087,0.456-1.521,0.799  c-0.396-1.002-0.501-2.341-0.253-3.641c0.071-0.373-0.074-0.752-0.376-0.982c-0.301-0.23-0.706-0.27-1.047-0.103  C26.129,0.313,16,5.378,16,14.2c0,2.048,0.674,3.644,1.625,4.845C17.748,19.021,17.873,19,18,19z" fill="#0076ff"/>
</svg>
