<?xml version="1.0" encoding="utf-8"?>
<!-- Generator: Adobe Illustrator 15.0.0, SVG Export Plug-In . SVG Version: 6.00 Build 0)  -->
<!DOCTYPE svg PUBLIC "-//W3C//DTD SVG 1.1//EN" "http://www.w3.org/Graphics/SVG/1.1/DTD/svg11.dtd">
<svg xmlns="http://www.w3.org/2000/svg" xmlns:xlink="http://www.w3.org/1999/xlink" version="1.1" id="Слой_1" x="0px" y="0px" width="50px" height="50px" viewBox="0 0 50 50" enable-background="new 0 0 50 50" xml:space="preserve" fill="#0076ff">
<circle cx="12" cy="12" r="4" fill="#0076ff"/>
<path d="M25.468,21.457L9.492,17.1c-0.4-0.1-1.5-0.1-1.7-0.1c-1.2,0-2.2,0.7-2.7,1.8l-4.8,11.8c-0.8,1.9,0.1,4.101,2,4.9l0.6,0.3  c0.7,0.2,1.5,0.2,2.1,0.2s9.6-0.4,9.6-0.4l6.826,4.676c0.4,0.301,0.8,0.4,1.3,0.4c0.7,0,1.4-0.3,1.9-1c0.7-1,0.4-2.4-0.6-3.1  L16.592,31.4c-0.4-0.301-1-0.4-1.5-0.4h-5.088l3.485-8.579l11.079,2.835c0.2,0,0.3,0.1,0.5,0.1c0.899,0,1.7-0.6,1.899-1.399  C27.068,22.857,26.468,21.757,25.468,21.457z" fill="#0076ff"/>
<path d="M45,29c-2.757,0-5-2.243-5-5s2.243-5,5-5s5,2.243,5,5S47.757,29,45,29z" fill="#0076ff"/>
<path d="M38,24c0-0.34,0.033-0.672,0.08-1H29v2h9.08C38.033,24.672,38,24.34,38,24z" fill="#0076ff"/>
<path d="M42.341,30.472L38.711,40H12v-4H0v2h10v4h30.09l4.204-11.036C43.608,30.896,42.953,30.725,42.341,30.472z" fill="#0076ff"/>
</svg>
