<?xml version="1.0" encoding="utf-8"?>
<!-- Generator: Adobe Illustrator 15.0.0, SVG Export Plug-In . SVG Version: 6.00 Build 0)  -->
<!DOCTYPE svg PUBLIC "-//W3C//DTD SVG 1.1//EN" "http://www.w3.org/Graphics/SVG/1.1/DTD/svg11.dtd">
<svg xmlns="http://www.w3.org/2000/svg" xmlns:xlink="http://www.w3.org/1999/xlink" version="1.1" id="Слой_1" x="0px" y="0px" width="50px" height="50px" viewBox="0 0 50 50" enable-background="new 0 0 50 50" xml:space="preserve" fill="#0076ff">
<path d="M36.707,14.707C36.512,14.902,36.256,15,36,15s-0.512-0.098-0.707-0.293c-0.391-0.391-0.391-1.023,0-1.414L45.32,3.266  C43.343,1.799,40.23,1,36.407,1c-6.89,0-17.028,2.777-24.822,10.571C0.458,22.7-1.228,39.246,3.284,45.302l10.009-10.009  c0.391-0.391,1.023-0.391,1.414,0s0.391,1.023,0,1.414L4.693,46.722C6.675,48.196,9.791,49,13.617,49  c6.877,0,17.007-2.78,24.811-10.584c10.924-10.922,12.684-27.738,8.298-33.728L36.707,14.707z M35.207,25.207  C35.012,25.402,34.756,25.5,34.5,25.5s-0.512-0.098-0.707-0.293L30,21.414L26.414,25l3.793,3.793c0.391,0.391,0.391,1.023,0,1.414  C30.012,30.402,29.756,30.5,29.5,30.5s-0.512-0.098-0.707-0.293L25,26.414L21.414,30l3.793,3.793c0.391,0.391,0.391,1.023,0,1.414  C25.012,35.402,24.756,35.5,24.5,35.5s-0.512-0.098-0.707-0.293L20,31.414l-2.293,2.293C17.512,33.902,17.256,34,17,34  s-0.512-0.098-0.707-0.293c-0.391-0.391-0.391-1.023,0-1.414L18.586,30l-3.793-3.793c-0.391-0.391-0.391-1.023,0-1.414  s1.023-0.391,1.414,0L20,28.586L23.586,25l-3.793-3.793c-0.391-0.391-0.391-1.023,0-1.414s1.023-0.391,1.414,0L25,23.586L28.586,20  l-3.793-3.793c-0.391-0.391-0.391-1.023,0-1.414s1.023-0.391,1.414,0L30,18.586l2.293-2.293c0.391-0.391,1.023-0.391,1.414,0  s0.391,1.023,0,1.414L31.414,20l3.793,3.793C35.598,24.184,35.598,24.816,35.207,25.207z" fill="#0076ff"/>
</svg>
