<?xml version="1.0" encoding="utf-8"?>
<!-- Generator: Adobe Illustrator 19.1.1, SVG Export Plug-In . SVG Version: 6.00 Build 0)  -->
<svg xmlns="http://www.w3.org/2000/svg" xmlns:xlink="http://www.w3.org/1999/xlink" version="1.1" id="Layer_1" x="0px" y="0px" viewBox="0 0 50 50" enable-background="new 0 0 50 50" xml:space="preserve" fill="#0076ff">
<path d="M13.698,18.998c-1.205,0-2.41-0.458-3.327-1.375c-1.834-1.834-1.834-4.82,0-6.654l4.59-4.59  c1.835-1.834,4.819-1.834,6.654,0c1.834,1.834,1.834,4.82,0,6.654l-4.59,4.59C16.107,18.539,14.902,18.998,13.698,18.998z" fill="#0076ff"/>
<line fill="none" stroke="#0076ff" stroke-width="2" stroke-linejoin="round" stroke-miterlimit="10" x1="19.165" y1="15.151" x2="21.81" y2="17.796"/>
<path d="M41.707,3.293l-1.058-1.052c-0.391-0.391-1.023-0.391-1.414,0l-7.76,7.761l2.472,2.466l7.761-7.76  C41.895,4.52,42,4.265,42,4S41.895,3.48,41.707,3.293z" fill="#0076ff"/>
<path d="M10,37c-1.447,0-3.036-1.225-3.036-3.021c0-1.042,0.406-2.021,1.142-2.757l19.957-19.91c0.391-0.391,1.023-0.391,1.414,0  l3.237,3.224c0.391,0.391,0.391,1.023,0,1.414L12.757,35.86C11.997,36.62,10.999,37,10,37z" fill="#0076ff"/>
<path d="M41.014,28.175l-8.85-8.851l-3.381,3.373l8.854,8.854c0.195,0.195,0.451,0.293,0.707,0.293s0.512-0.098,0.707-0.293  l1.963-1.962c0.188-0.188,0.293-0.441,0.293-0.707C41.307,28.617,41.201,28.362,41.014,28.175z" fill="#0076ff"/>
<path d="M22.244,32.856c-0.559-1.005-0.681-2.176-0.376-3.26l-7.697,7.679c-0.178,0.178-0.369,0.339-0.565,0.491  c1.755,0.082,3.363,1.01,4.305,2.536l4.014,6.502c0.4,0.646,1.063,1.076,1.817,1.176c0.112,0.016,0.225,0.022,0.336,0.022  c0.637,0,1.251-0.24,1.723-0.682l1.041-0.973c1.122-1.049,1.385-2.72,0.639-4.063L22.244,32.856z" fill="#0076ff"/>
<path d="M26.233,25.241l-1.501,1.498l2.352,4.925c0.184,0.384,0.128,0.844-0.144,1.174l-3.714,4.529l1.547,1.268l3.713-4.528  c0.762-0.926,0.919-2.224,0.402-3.305L26.233,25.241z" fill="#0076ff"/>
<path d="M24.228,30.476c-1.25-0.184-1.974-0.609-2.342-0.898l-1.421,1.417c0.572,0.499,1.654,1.193,3.472,1.46  c0.049,0.008,0.098,0.011,0.146,0.011c0.488,0,0.915-0.357,0.988-0.854C25.153,31.063,24.775,30.556,24.228,30.476z" fill="#0076ff"/>
</svg>
