<?xml version="1.0" encoding="utf-8"?>
<!-- Generator: Adobe Illustrator 19.1.1, SVG Export Plug-In . SVG Version: 6.00 Build 0)  -->
<svg xmlns="http://www.w3.org/2000/svg" xmlns:xlink="http://www.w3.org/1999/xlink" version="1.1" id="Layer_1" x="0px" y="0px" viewBox="0 0 50 50" enable-background="new 0 0 50 50" xml:space="preserve" fill="#0076ff">
<path fill="none" stroke="#0076ff" stroke-width="2" stroke-miterlimit="10" d="M44.965,5.035c-4.047-4.047-10.609-4.047-14.656,0  c-0.563,0.563-2.709,2.709-3.273,3.273c-4.047,4.047-4.047,10.609,0,14.656s10.609,4.047,14.656,0  c0.563-0.563,2.709-2.709,3.273-3.273C49.012,15.645,49.012,9.083,44.965,5.035z"/>
<path fill="none" stroke="#0076ff" stroke-width="2" stroke-linejoin="round" stroke-miterlimit="10" d="M22.083,27.917  c2.975-2.975,11-2,11-2"/>
<line fill="none" stroke="#0076ff" stroke-linejoin="round" stroke-miterlimit="10" x1="26.923" y1="23.077" x2="44.914" y2="5.086"/>
<line fill="none" stroke="#0076ff" stroke-linejoin="round" stroke-miterlimit="10" x1="29.348" y1="24.652" x2="46.611" y2="7.389"/>
<line fill="none" stroke="#0076ff" stroke-linejoin="round" stroke-miterlimit="10" x1="32.473" y1="25.527" x2="47.699" y2="10.301"/>
<line fill="none" stroke="#0076ff" stroke-linejoin="round" stroke-miterlimit="10" x1="24.473" y1="17.527" x2="39.699" y2="2.301"/>
<line fill="none" stroke="#0076ff" stroke-linejoin="round" stroke-miterlimit="10" x1="25.348" y1="20.652" x2="42.611" y2="3.389"/>
<line fill="none" stroke="#0076ff" stroke-linejoin="round" stroke-miterlimit="10" x1="29.372" y1="7.372" x2="42.638" y2="20.638"/>
<line fill="none" stroke="#0076ff" stroke-linejoin="round" stroke-miterlimit="10" x1="27.306" y1="9.306" x2="40.66" y2="22.66"/>
<line fill="none" stroke="#0076ff" stroke-linejoin="round" stroke-miterlimit="10" x1="25.196" y1="11.196" x2="38.811" y2="24.811"/>
<line fill="none" stroke="#0076ff" stroke-linejoin="round" stroke-miterlimit="10" x1="24.199" y1="14.199" x2="35.671" y2="25.671"/>
<line fill="none" stroke="#0076ff" stroke-linejoin="round" stroke-miterlimit="10" x1="36.275" y1="2.275" x2="47.763" y2="13.763"/>
<line fill="none" stroke="#0076ff" stroke-linejoin="round" stroke-miterlimit="10" x1="33.12" y1="3.12" x2="46.918" y2="16.918"/>
<line fill="none" stroke="#0076ff" stroke-linejoin="round" stroke-miterlimit="10" x1="31.372" y1="5.372" x2="44.638" y2="18.638"/>
<path d="M12.594,36.008h-1.501c-0.789,0-1.562,0.32-2.121,0.879l-6.385,6.386C2.208,43.649,2,44.151,2,44.686  c0,0.534,0.208,1.037,0.586,1.415l1.313,1.313C4.276,47.792,4.778,48,5.313,48s1.036-0.208,1.415-0.586l6.386-6.386  c0.559-0.559,0.879-1.332,0.879-2.121v-1.501L12.594,36.008z" fill="#0076ff"/>
<g fill="#0076ff">
	<path d="M25.077,16.795l-1.985,0.241c0.253,2.1,0.439,8.02-1.714,10.173L14,34.586L15.414,36l7.377-7.377   C26.073,25.341,25.119,17.143,25.077,16.795z" fill="#0076ff"/>
</g>
</svg>
