<?xml version="1.0" encoding="utf-8"?>
<!-- Generator: Adobe Illustrator 15.0.0, SVG Export Plug-In . SVG Version: 6.00 Build 0)  -->
<!DOCTYPE svg PUBLIC "-//W3C//DTD SVG 1.1//EN" "http://www.w3.org/Graphics/SVG/1.1/DTD/svg11.dtd">
<svg xmlns="http://www.w3.org/2000/svg" xmlns:xlink="http://www.w3.org/1999/xlink" version="1.1" id="Слой_1" x="0px" y="0px" width="50px" height="50px" viewBox="0 0 50 50" enable-background="new 0 0 50 50" xml:space="preserve" fill="#0076ff">
<path d="M43.991,22.002c0,2.765-2.239,5.002-5,5.002c-2.763,0-5-2.237-5-5.002c0-2.76,2.237-4.998,5-4.998  C41.752,17.004,43.991,19.242,43.991,22.002z" fill="#0076ff"/>
<path d="M49.657,36.13c-0.237-0.208-5.903-5.079-13.267-5.079c-1.011,0-2.004,0.075-2.985,0.195  c1.446-1.721,0.892-3.177-0.075-4.875c-1.059-1.861-6.331-9.944-7.93-12.683c-1.101-1.883-2.324-1.756-3.624-1.057  c-1.028,0.55-7.792,3.89-11.393,5.993c-2.781,1.62-1.457,4.617,1.417,3.512c1.134-0.435,7.892-3.904,9.29-4.369  c1.4-0.467,1.805,1.222,1.805,1.222l1.866,4.136L7.563,33.421c-3.826-1.19-5.886-2.873-5.916-2.897  c-0.42-0.358-1.052-0.307-1.41,0.114s-0.306,1.052,0.115,1.409c0.218,0.186,5.444,4.531,15.044,4.531  c4.127,0,7.759-0.946,11.271-1.86c3.29-0.857,6.398-1.667,9.723-1.667c6.598,0,11.899,4.54,11.953,4.586  c0.189,0.165,0.423,0.245,0.655,0.245c0.279,0,0.557-0.116,0.755-0.343C50.116,37.123,50.073,36.492,49.657,36.13z" fill="#0076ff"/>
</svg>
