<?xml version="1.0" encoding="utf-8"?>
<!-- Generator: Adobe Illustrator 15.0.0, SVG Export Plug-In . SVG Version: 6.00 Build 0)  -->
<!DOCTYPE svg PUBLIC "-//W3C//DTD SVG 1.1//EN" "http://www.w3.org/Graphics/SVG/1.1/DTD/svg11.dtd">
<svg xmlns="http://www.w3.org/2000/svg" xmlns:xlink="http://www.w3.org/1999/xlink" version="1.1" id="Слой_1" x="0px" y="0px" width="50px" height="50px" viewBox="0 0 50 50" enable-background="new 0 0 50 50" xml:space="preserve" fill="#0076ff">
<path d="M10.456,23.171c0.074,2.214,0.476,4.31,1.216,6.227c0.342,1.742,0.361,3.9-0.276,4.539c-1.669,1.667-3.757,3.3-5.434,4.612  C4.748,39.5,3.699,40.32,3.079,40.94c-0.918,0.917-1.266,2.141-0.979,3.445c0.247,1.126,0.965,2.31,2.077,3.422  c1.449,1.446,2.958,2.188,4.317,2.188c0.947-0.001,1.821-0.359,2.55-1.09c0.645-0.645,1.475-1.705,2.435-2.933  c1.298-1.659,2.914-3.725,4.57-5.38c0.562-0.561,2.376-0.687,4.434-0.314c1.965,0.77,4.108,1.184,6.366,1.253L10.456,23.171z" fill="#0076ff"/>
<path d="M6,12c-3.309,0-6-2.691-6-6s2.691-6,6-6s6,2.691,6,6S9.309,12,6,12z" fill="#0076ff"/>
<path d="M44.43,7.57c-9.275-9.273-21.252-5.749-28.453,1.451c-2.678,2.675-4.534,5.64-5.308,11.538l20.816,20.779  c4.763-0.624,8.539-2.374,11.49-5.325c3.887-3.885,6.338-8.686,6.902-13.517C50.525,16.941,48.642,11.78,44.43,7.57z" fill="#0076ff"/>
</svg>
