<?xml version="1.0" encoding="utf-8"?>
<!-- Generator: Adobe Illustrator 19.1.1, SVG Export Plug-In . SVG Version: 6.00 Build 0)  -->
<svg xmlns="http://www.w3.org/2000/svg" xmlns:xlink="http://www.w3.org/1999/xlink" version="1.1" id="Layer_1_copy" x="0px" y="0px" viewBox="0 0 50 50" enable-background="new 0 0 50 50" xml:space="preserve" fill="#0076ff">
<path d="M12,12c-2.8,0-5-2.2-5-5s2.2-5,5-5s5,2.2,5,5S14.8,12,12,12z" fill="#0076ff"/>
<path d="M43.9,11c-1.3-1.7-3.4-0.8-4.4-0.1l-14.2,9.5l-2.7-4.1l4.5-1.4c1.2-0.4,2-1.4,2.1-2.6l0.9-7.8c0.1-1.1-0.9-2.5-2-2.6  c-1.1-0.1-2.7,0.4-3,2.6L24.5,10l-8.8,3l-7.1,4.9c-1.4,1-2.2,3.4-1.2,4.7l4.8,6.6c0.6,0.8,2.2,1.1,3.4,0.3s1.3-2.4,0.5-3.3l-3.7-4.9  l2.1-1.5l4.3,6.7L19,45c0,1.3,1,3,3,3s3-1.5,3-3V30.9c0-2.6,2.1-4.5,4.3-6l14.3-9.6C44.7,14.4,44.9,12.3,43.9,11z" fill="#0076ff"/>
</svg>
