<?xml version="1.0" encoding="utf-8"?>
<!-- Generator: Adobe Illustrator 15.0.0, SVG Export Plug-In . SVG Version: 6.00 Build 0)  -->
<!DOCTYPE svg PUBLIC "-//W3C//DTD SVG 1.1//EN" "http://www.w3.org/Graphics/SVG/1.1/DTD/svg11.dtd">
<svg xmlns="http://www.w3.org/2000/svg" xmlns:xlink="http://www.w3.org/1999/xlink" version="1.1" id="Слой_1" x="0px" y="0px" width="50px" height="50px" viewBox="0 0 50 50" enable-background="new 0 0 50 50" xml:space="preserve" fill="#0076ff">
<path d="M17.614,2.217c0.349,1.874,1.335,3.651,2.927,5.243c1.56,1.561,3.298,2.54,5.166,2.91c0.054,0.013,0.518,0.14,1.264,0.2  C26.983,10.381,27,10.192,27,10c0-4.962-4.038-9-9-9c-0.179,0-0.354,0.017-0.531,0.027C17.519,1.507,17.581,1.985,17.614,2.217z" fill="#0076ff"/>
<path d="M25.224,12.309c-2.17-0.426-4.253-1.59-6.098-3.435c-1.882-1.882-3.056-4.013-3.486-6.333  c-0.009-0.06-0.083-0.583-0.146-1.179C12.566,2.213,10.25,4.511,9.379,7.43c0.804,0.125,1.396,0.259,1.45,0.271  c2.2,0.468,4.238,1.622,6.043,3.425c1.805,1.805,2.96,3.844,3.433,6.062c0.013,0.08,0.098,0.66,0.157,1.46  c2.955-0.843,5.292-3.155,6.164-6.098C25.781,12.47,25.266,12.321,25.224,12.309z" fill="#0076ff"/>
<path d="M18.338,17.545c-0.38-1.773-1.353-3.478-2.88-5.004c-1.527-1.526-3.229-2.498-5.06-2.888  c-0.289-0.065-0.79-0.165-1.368-0.253C9.017,9.6,9,9.798,9,10c0,4.962,4.038,9,9,9c0.163,0,0.321-0.016,0.482-0.024  C18.443,18.368,18.384,17.847,18.338,17.545z" fill="#0076ff"/>
<path d="M46.012,3.988c-2.588-2.586-5.807-3.953-9.308-3.953c-3.181,0-6.465,1.106-9.789,3.309c-0.016,0.011-0.068,0.05-0.111,0.081  c1.101,1.472,1.784,3.154,2.051,4.894c5.323-3.895,10.239-3.938,13.501-0.675c3.903,3.904,3.086,10.176-3.422,16.682  c-6.506,6.508-13.776,8.326-17.682,4.422c-1.897-1.898-2.443-4.591-1.757-7.604c0.034-0.099,0.078-0.196,0.113-0.294  c-1.756,0.254-3.56,0.083-5.246-0.502c-0.968,4.717,0.181,8.997,3.235,12.055c2.335,2.334,5.402,3.568,8.87,3.568  c5.244,0,10.97-2.838,16.122-7.99C52.695,17.876,50.983,8.962,46.012,3.988z" fill="#0076ff"/>
<path d="M12.931,39.193l-2.125-2.126c-0.756-0.752-2.076-0.753-2.831,0.001l-7.317,7.317c-0.853,0.854-0.439,2.711,0.903,4.052  c0.841,0.842,1.9,1.344,2.834,1.344c0.508,0,0.929-0.153,1.217-0.442l7.319-7.315c0.377-0.377,0.584-0.879,0.584-1.415  S13.308,39.57,12.931,39.193z" fill="#0076ff"/>
<path d="M26.042,34.265L15.767,23.961c-0.297-0.298-0.748-0.378-1.13-0.201c-0.381,0.178-0.611,0.575-0.574,0.994  c0.211,2.428-0.645,8.33-2.622,10.318c0.281,0.164,0.548,0.351,0.78,0.581l2.124,2.126c0.234,0.234,0.423,0.498,0.589,0.774  c1.805-1.783,6.765-2.614,9.559-2.614c0.287,0,0.541,0.009,0.754,0.027c0.417,0.043,0.815-0.192,0.993-0.573  S26.339,34.563,26.042,34.265z M19.089,33.954c-0.811,0.119-1.58,0.277-2.286,0.473c-0.088,0.024-0.177,0.036-0.266,0.036  c-0.262,0-0.517-0.103-0.707-0.293c-0.255-0.255-0.353-0.627-0.257-0.974c0.206-0.743,0.372-1.565,0.495-2.443  c0.076-0.549,0.584-0.933,1.128-0.853c0.547,0.076,0.929,0.581,0.852,1.128c-0.052,0.377-0.112,0.745-0.18,1.103  c0.305-0.058,0.615-0.109,0.932-0.155c0.542-0.091,1.054,0.298,1.134,0.845C20.014,33.366,19.636,33.874,19.089,33.954z" fill="#0076ff"/>
</svg>
