<?xml version="1.0" encoding="utf-8"?>
<!-- Generator: Adobe Illustrator 15.0.0, SVG Export Plug-In . SVG Version: 6.00 Build 0)  -->
<!DOCTYPE svg PUBLIC "-//W3C//DTD SVG 1.1//EN" "http://www.w3.org/Graphics/SVG/1.1/DTD/svg11.dtd">
<svg xmlns="http://www.w3.org/2000/svg" xmlns:xlink="http://www.w3.org/1999/xlink" version="1.1" id="Слой_1" x="0px" y="0px" width="50px" height="50px" viewBox="0 0 50 50" enable-background="new 0 0 50 50" xml:space="preserve" fill="#0076ff">
<rect fill="none" width="50" height="50"/>
<path d="M45.032,3.5c-2.757,0-5,2.243-5,5s2.243,5,5,5s5-2.243,5-5S47.789,3.5,45.032,3.5z" fill="#0076ff"/>
<g fill="#0076ff">
	
		<line stroke="#0076ff" stroke-width="2.0218" stroke-linecap="round" stroke-linejoin="round" stroke-miterlimit="10" x1="20" y1="13" x2="1" y2="13" fill="#0076ff"/>
	
		<line stroke="#0076ff" stroke-width="2.0218" stroke-linecap="round" stroke-linejoin="round" stroke-miterlimit="10" x1="15" y1="18" x2="1" y2="18" fill="#0076ff"/>
	
		<line stroke="#0076ff" stroke-width="2.0218" stroke-linecap="round" stroke-linejoin="round" stroke-miterlimit="10" x1="15" y1="23" x2="1" y2="23" fill="#0076ff"/>
	
		<line stroke="#0076ff" stroke-width="2.0218" stroke-linecap="round" stroke-linejoin="round" stroke-miterlimit="10" x1="19" y1="28" x2="1" y2="28" fill="#0076ff"/>
</g>
<path d="M39.54,13.563c-0.702-1.306-2.45-3.93-2.493-3.986c-0.07-0.142-0.175-0.436-7.851-5.483  C28.75,3.737,28.2,3.548,27.607,3.548c-0.168,0-0.337,0.015-0.477,0.039L16.747,4.704c-0.89,0.254-3.253,0.93-2.958,2.842  c0.125,1.001,1.505,1.457,2.735,1.457c0.147,0,0.288-0.007,0.371-0.019l9.721-0.196l3.446,2.688l-7.755,5.419  c-2.096,1.524-3.989,3.518-2.119,6.786l6.899,9.967c-2.489,0.031-9.126,0.127-10.619,0.293c-2.385,0.28-2.742,1.685-2.742,2.496  c0,1.244,0.866,2.5,2.8,2.5h16.1c1.3,0,2.317-0.462,2.79-1.267c0.424-0.72,0.37-1.635-0.148-2.568  c-0.713-1.336-5.769-9.068-6.975-10.95l10.276-6.531C40.092,16.653,40.444,15.17,39.54,13.563z" fill="#0076ff"/>
<g fill="#0076ff">
	<path d="M19.829,40.938c-1.511,1.563-3.144,3.282-3.911,4.192c-1.366,1.595-1.582,3.146-0.552,4.298   C15.82,49.832,16.296,50,16.781,50c1.091,0,2.226-0.851,3.248-1.77c1.109-0.979,4.883-4.729,7.447-7.293H19.829z" fill="#0076ff"/>
</g>
<g fill="#0076ff">
	<path d="M48.815,21.525c-0.476-0.528-1.234-0.561-2.037-0.596c-0.176-0.007-0.357-0.015-0.553-0.029l-5.566-0.278l-0.175-1.959   c-0.252,0.231-0.532,0.449-0.844,0.647l-4.422,2.811l0.289,1.665c0.006,0.039,0.018,0.076,0.032,0.111   c0.315,0.735,0.713,1.463,1.89,1.602c0.068-0.004,6.901-0.399,8.401-0.4c2.774-0.173,3.301-1.424,3.368-2.168   C49.237,22.315,49.112,21.855,48.815,21.525z" fill="#0076ff"/>
</g>
</svg>
