<?xml version="1.0" encoding="utf-8"?>
<!-- Generator: Adobe Illustrator 15.0.0, SVG Export Plug-In . SVG Version: 6.00 Build 0)  -->
<!DOCTYPE svg PUBLIC "-//W3C//DTD SVG 1.1//EN" "http://www.w3.org/Graphics/SVG/1.1/DTD/svg11.dtd">
<svg xmlns="http://www.w3.org/2000/svg" xmlns:xlink="http://www.w3.org/1999/xlink" version="1.1" id="Слой_1" x="0px" y="0px" width="50px" height="50px" viewBox="0 0 50 50" enable-background="new 0 0 50 50" xml:space="preserve" fill="#0076ff">
<path d="M21.329,31.502c0.97-1.822,1.84-3.905,2.532-6.261c-7.768-8.197-8.923-16.826-9.048-20.199  c-0.001-0.033-0.013-0.281-0.027-0.643c-1.409,0.702-2.735,1.544-3.963,2.508c-0.01,0.542-0.008,1.222,0.014,2.122  C11.049,22.179,18.763,29.445,21.329,31.502z" fill="#0076ff"/>
<path d="M17.645,10.381c0.491,1.877,1.269,4.03,2.47,6.304c2.36-0.964,14.039-5.047,27.021,2.488c0.051,0.029,0.09,0.052,0.139,0.08  c-0.812-3.142-2.276-6.021-4.232-8.495C41.03,9.9,39.468,9.417,39.442,9.409C28.744,5.917,19.632,9.496,17.645,10.381z" fill="#0076ff"/>
<path d="M41.316,25.919c-1.919-0.525-4.217-0.939-6.849-1.023c-0.444,3.177-2.872,14.695-15.191,22.092  c-0.119,0.073-0.219,0.132-0.331,0.199c1.931,0.527,3.959,0.814,6.055,0.814c1.07,0,2.121-0.079,3.152-0.222  c1.924-1.438,3.273-2.707,3.294-2.726C39.447,37.758,41.022,28.543,41.316,25.919z" fill="#0076ff"/>
<path d="M47.952,26.438c0.03-0.476,0.05-0.955,0.05-1.438c0-1.059-0.078-2.1-0.218-3.121c-0.432-0.267-0.957-0.581-1.645-0.972  c-11.872-6.892-22.477-3.472-25.03-2.468c1.098,1.785,2.487,3.618,4.207,5.432c11.131-2.662,19.259,0.754,22.254,2.365  C47.595,26.249,47.738,26.324,47.952,26.438z" fill="#0076ff"/>
<path d="M32.448,24.904c-2.061,0.067-4.291,0.343-6.673,0.913C22.574,36.694,15.66,42.029,12.797,43.829  c-0.027,0.018-0.223,0.143-0.513,0.327c1.295,0.862,2.684,1.594,4.145,2.183c0.472-0.261,1.052-0.598,1.811-1.062  C29.543,38.491,31.96,28.115,32.448,24.904z" fill="#0076ff"/>
<path d="M46.631,28.002c-0.771-0.415-1.917-0.957-3.374-1.474c-0.435,3.292-2.345,12.601-10.449,19.992  c-0.016,0.015-0.084,0.079-0.196,0.182c7.863-2.767,13.785-9.688,15.109-18.118C47.28,28.347,46.882,28.135,46.631,28.002z" fill="#0076ff"/>
<path d="M16.811,4.96c0.031,0.833,0.132,2.014,0.394,3.435c2.723-1.145,11.931-4.364,22.632-0.953C35.828,4.05,30.65,1.999,25,1.999  c-2.905,0-5.684,0.547-8.246,1.534C16.782,4.314,16.811,4.946,16.811,4.96z" fill="#0076ff"/>
<path d="M10.555,42.882c0.476-0.298,0.908-0.572,1.171-0.741c0.711-0.447,1.693-1.134,2.803-2.083  c-2.634-2.028-9.725-8.337-12.064-19.042c-0.005-0.021-0.028-0.122-0.063-0.281C2.141,22.118,1.999,23.542,1.999,25  C1.999,32.215,5.34,38.662,10.555,42.882z" fill="#0076ff"/>
<path d="M4.415,20.571c2.303,10.544,9.464,16.525,11.609,18.113c1.407-1.396,2.912-3.188,4.3-5.43  C17.755,31.244,9.068,23.401,8.837,9.07C8.833,8.922,8.832,8.799,8.83,8.661c-2.189,2.167-3.944,4.771-5.128,7.667  C3.983,18.724,4.409,20.544,4.415,20.571z" fill="#0076ff"/>
</svg>
