<?xml version="1.0" encoding="utf-8"?>
<!-- Generator: Adobe Illustrator 15.0.0, SVG Export Plug-In . SVG Version: 6.00 Build 0)  -->
<!DOCTYPE svg PUBLIC "-//W3C//DTD SVG 1.1//EN" "http://www.w3.org/Graphics/SVG/1.1/DTD/svg11.dtd">
<svg xmlns="http://www.w3.org/2000/svg" xmlns:xlink="http://www.w3.org/1999/xlink" version="1.1" id="Слой_1__x28_копия_x29_" x="0px" y="0px" width="50px" height="50px" viewBox="0 0 50 50" enable-background="new 0 0 50 50" xml:space="preserve" fill="#0076ff">
<path d="M38.743,32.863c-0.945-0.387-7.69-2.836-7.69-2.836s0.551-2.697,0.637-4.262c1.362-2.719,3.687-6.392,4.437-18.806  c0.136-1.13-0.407-1.88-1.532-1.922c-0.744-0.028-1.316,0.539-1.422,1.266C31.959,15.583,31.25,24,25,24  c-6.153,0-6.856-9.729-8.054-16.962c-0.155-2.002-1.198-1.891-1.613-1.877c-1.292,0.042-1.401,1.054-1.36,2.301  c0.485,16.33,4.732,18.077,5.271,19.462c0.151,0.832,1.286,5.297,1.286,5.297L6.626,46.301C5.373,47.177,5.443,48.32,5.79,49.1  c0.414,0.93,1.904,1.239,3.002,0.45l17.247-14.022l8.709,1.634c0,0-0.828,8.497-0.949,9.71S33.926,50,35.455,50  c1.378,0,1.889-0.488,2.379-2.221c0,0,1.948-11.801,2.07-12.939C40.032,33.637,39.688,33.25,38.743,32.863z" fill="#0076ff"/>
<path d="M44.757,19.077c-0.176,0-0.354-0.016-0.532-0.05l-2.621-0.48c-0.752-0.142-1.399-0.565-1.828-1.194  c-0.428-0.628-0.586-1.386-0.444-2.133L41.73,2.522c0.283-1.515,1.76-2.567,3.324-2.268l2.621,0.479  c0.754,0.143,1.4,0.566,1.829,1.195c0.429,0.629,0.587,1.386,0.445,2.132l-2.399,12.699C47.297,18.102,46.122,19.077,44.757,19.077z  " fill="#0076ff"/>
<path d="M5.243,19.077L5.243,19.077c-1.366,0-2.541-0.975-2.794-2.318L0.05,4.061c-0.292-1.542,0.726-3.034,2.269-3.325l2.65-0.485  c0.172-0.032,0.35-0.049,0.525-0.049c1.366,0,2.541,0.976,2.793,2.319l2.399,12.697c0.291,1.543-0.727,3.035-2.268,3.326  l-2.649,0.484C5.596,19.061,5.419,19.077,5.243,19.077z" fill="#0076ff"/>
<g fill="#0076ff">
	<path d="M32.676,6.69c-0.004,0-0.008-0.002-0.012-0.003c-0.04-0.002-0.083-0.003-0.123-0.005c-0.116-0.007-0.219-0.014-0.34-0.021   v0.006C27.4,6.396,22.228,6.402,17.42,6.687V6.682c-1.607,0.053-3.365,0.247-3.916,0.3c-0.613,0.058-1.446,0.147-2.293,0.242   l0.372,1.971c0.782-0.087,1.542-0.168,2.109-0.222c0.55-0.052,2.698-0.176,3.728-0.271V8.688   c4.884-0.293,10.171-0.297,15.031-0.009c2.563,0.158,3.593,0.267,4.117,0.318c0.367,0.036,0.959,0.101,1.861,0.214l0.371-1.969   c-0.841-0.106-1.523-0.185-2.039-0.235C36.256,6.954,35.09,6.842,32.676,6.69z" fill="#0076ff"/>
</g>
<g fill="#0076ff">
	<circle cx="25" cy="18" r="4" fill="#0076ff"/>
</g>
</svg>
