<?xml version="1.0" encoding="utf-8"?>
<!-- Generator: Adobe Illustrator 15.0.0, SVG Export Plug-In . SVG Version: 6.00 Build 0)  -->
<!DOCTYPE svg PUBLIC "-//W3C//DTD SVG 1.1//EN" "http://www.w3.org/Graphics/SVG/1.1/DTD/svg11.dtd">
<svg xmlns="http://www.w3.org/2000/svg" xmlns:xlink="http://www.w3.org/1999/xlink" version="1.1" id="Слой_1" x="0px" y="0px" width="50px" height="50px" viewBox="0 0 50 50" enable-background="new 0 0 50 50" xml:space="preserve" fill="#0076ff">
<path d="M38.004,4.998c0,2.761,2.237,5.002,4.998,5.002c2.763,0,5.002-2.241,5.002-5.002C48.004,2.24,45.765,0,43.002,0  C40.241,0,38.004,2.24,38.004,4.998z" fill="#0076ff"/>
<path d="M11.095,5.471c-0.476-0.279-1.089-0.121-1.369,0.355c-0.28,0.476-0.121,1.089,0.355,1.369l10.047,5.906  c0.35-0.44,0.797-0.969,1.328-1.54L11.095,5.471z" fill="#0076ff"/>
<path d="M42.516,23.171c-1.175-0.946-6.828-4.234-6.828-4.234S38,13.524,38,10.708s-2.736-4.288-4.624-4.582  c-5.069-0.792-9.428,2.761-11.92,5.436l9.19,5.403l1.25-0.864c0,0-0.096,0.668-0.144,1.515c-0.044,0.767-0.047,1.676,0.095,2.376  c0.027,0.133,0.058,0.261,0.096,0.376c0.4,1.21,3.713,2.924,9.057,5.179C44.292,26.938,44.977,25.15,42.516,23.171z" fill="#0076ff"/>
<path d="M42.893,49.996c-1.382,0-2.67-0.354-3.506-0.728L1.82,28.81c-0.485-0.264-0.664-0.871-0.4-1.356s0.872-0.665,1.357-0.399  l37.496,20.424c0.091,0.036,3.957,1.698,5.959-1.023c0.327-0.445,0.953-0.539,1.398-0.213c0.444,0.327,0.54,0.953,0.213,1.398  C46.523,49.434,44.634,49.996,42.893,49.996z" fill="#0076ff"/>
<g fill="#0076ff">
	<path d="M25.475,39.417l-4.667-2.542c-0.213,0.266-0.348,0.434-0.348,0.434l4.831,2.315C25.291,39.624,25.357,39.55,25.475,39.417z   " fill="#0076ff"/>
	<path d="M20.846,23.31c1.789,1.242,3.812,2.415,5.001,3.308c1.229,0.923,1.518,1.92,0.612,3.128   c-0.571,0.762-2.809,3.571-4.383,5.542l4.75,2.587c1.399-1.608,3.558-4.12,5.632-6.671c3.534-4.345,0.179-7.276-1.231-8.383   c-0.531-0.416-2.358-1.723-4.434-3.193l2.039-1.41l-8.704-5.117c-0.579,0.728-0.897,1.208-0.897,1.208   C16.307,18.31,19.076,22.08,20.846,23.31z" fill="#0076ff"/>
</g>
</svg>
