<?xml version="1.0" encoding="utf-8"?>
<!-- Generator: Adobe Illustrator 19.1.1, SVG Export Plug-In . SVG Version: 6.00 Build 0)  -->
<svg xmlns="http://www.w3.org/2000/svg" xmlns:xlink="http://www.w3.org/1999/xlink" version="1.1" id="Layer_1_copy" x="0px" y="0px" viewBox="0 0 50 50" enable-background="new 0 0 50 50" xml:space="preserve" fill="#0076ff">
<path fill="#0076ff" d="M17,12c-2.2,0-4-1.8-4-4s1.8-4,4-4s4,1.8,4,4S19.2,12,17,12z"/>
<path fill="#0076ff" d="M2.6,43C2,43,1.5,42.8,1,42.5c-1.1-0.9-1.3-2.4-0.5-3.6l4.4-6v-6.8c0-0.9,0.2-1.7,0.6-2.5l4.6-7.8  c1.2-2.1,3.9-2.9,6.1-1.8l1.3,0.7c0.1,0,0.2,0.1,0.2,0.2l2.4,5.8l5.2-0.6c1.2-0.1,2.3,0.8,2.5,2c0.1,0.6-0.1,1.2-0.5,1.7  c-0.4,0.5-0.9,0.8-1.5,0.8l-6.6,0.7c-1,0.1-2-0.4-2.4-1.3l-1.4-2.6l-2.1,3.7l5.5,4.9c0.4,0.3,0.7,0.8,0.8,1.2l2.6,8.1  c0.2,0.7,0.2,1.4-0.2,2.1c-0.3,0.7-0.9,1.1-1.6,1.4c-1.4,0.4-3-0.4-3.4-1.8l-2.4-7.7l-4-3V34c0,0.1,0,0.2-0.1,0.3L4.7,42  c-0.4,0.6-1,0.9-1.7,1C2.8,43,2.7,43,2.6,43z"/>
<path fill="#0076ff" d="M28,16.9c-2.2,0-4-1.8-4-4c0-2.2,1.8-4,4-4s4,1.8,4,4C31.9,15.2,30.2,16.9,28,16.9z"/>
<path fill="#0076ff" d="M30.6,43c-0.2,0-0.3,0-0.5-0.1c-1.3-0.3-2.1-1.5-1.9-2.8l1.5-7.9c0.1-0.7,0.5-1.3,1.1-1.7l5.5-4.2l-2.9-3.2  L31.5,27c-0.3,0.6-0.8,1-1.4,1.3l-5.7,2.5c-1.1,0.5-2.4,0-2.9-1.1c-0.3-0.5-0.3-1.2-0.1-1.7c0.2-0.6,0.6-1,1.2-1.3l5.2-2.3l2.4-5.8  c0-0.1,0.1-0.1,0.1-0.2l2.2-1.9c1.4-1.2,3.4-1.1,4.7,0.2l6.3,6.4c1.3,1.3,1.8,3.1,1.5,4.9l-1.4,6.4l5.3,4.2c1,0.8,1.2,2.3,0.5,3.3  c-0.4,0.5-0.9,0.9-1.6,1c-0.6,0.1-1.3-0.1-1.8-0.5l-6.4-5c-0.9-0.6-1.3-1.7-1.1-2.8l0.8-4.3l-5.3,3.7L33,41c-0.1,0.6-0.5,1.2-1,1.6  C31.6,42.9,31.1,43,30.6,43z"/>
</svg>
