<svg xmlns="http://www.w3.org/2000/svg" xmlns:xlink="http://www.w3.org/1999/xlink" version="1.1" x="0px" y="0px" viewBox="0 0 100 125" enable-background="new 0 0 100 100" xml:space="preserve"><g><path fill="#000000" d="M84.72,22.407c-0.572-0.814-1.711-2.183-2.923-2.183c-0.161,0-0.32,0.023-0.468,0.068   c-0.811,0.244-1.085,0.61-2.865,2.99c-0.677,0.906-1.816,2.405-3.462,4.57c-5.153,6.778-14.746,19.396-30.415,40.46   c-1.732,2.302-2.147,2.553-3.037,2.553c-0.453,0-1.039-0.086-1.605-0.179c-1.745-0.284-10.165-2.807-14.394-4.107   c-1.937-0.554-3.807,0.378-4.2,2.037c-0.078,0.332-0.228,0.701-0.387,1.091c-0.563,1.383-1.507,3.697,1.498,5.544   c2.951,1.812,14.866,4.168,16.22,4.432c0.324,0.062,0.662,0.092,1.005,0.092c1.995,0,3.681-1.052,3.752-1.097   c0.113-0.071,0.212-0.163,0.292-0.27C84.723,23.799,84.783,23.62,84.86,23.394C84.974,23.062,84.921,22.695,84.72,22.407z    M42.108,76.907c-0.375,0.201-1.36,0.669-2.421,0.669c-0.207,0-0.406-0.019-0.59-0.054c-3.557-0.692-13.271-2.786-15.483-4.146   c-1.415-0.869-1.18-1.445-0.612-2.838c0.185-0.452,0.375-0.92,0.491-1.419c0.075-0.314,0.413-0.511,0.884-0.511   c0.18,0,0.372,0.029,0.549,0.08c0.502,0.154,12.337,3.79,14.664,4.17c0.657,0.107,1.35,0.207,1.96,0.207   c2.116,0,3.099-1.177,4.798-3.436c15.667-21.059,25.254-33.67,30.405-40.445c1.651-2.173,2.795-3.677,3.473-4.585   c0.594-0.795,1.314-1.758,1.626-2.093c0.159,0.118,0.373,0.324,0.586,0.562C78.816,27.979,55.086,59.616,42.108,76.907z"/><path fill="#000000" d="M32.718,62.35c3.416,0,6.194-2.778,6.194-6.194s-2.779-6.194-6.194-6.194c-3.416,0-6.195,2.778-6.195,6.194   S29.302,62.35,32.718,62.35z M32.718,52.16c2.203,0,3.994,1.792,3.994,3.995s-1.792,3.995-3.994,3.995   c-2.203,0-3.995-1.792-3.995-3.995S30.515,52.16,32.718,52.16z"/></g><text x="0" y="115" fill="#000000" font-size="5px" font-weight="bold" font-family="'Helvetica Neue', Helvetica, Arial-Unicode, Arial, Sans-serif">Created by Jakub Čaja</text><text x="0" y="120" fill="#000000" font-size="5px" font-weight="bold" font-family="'Helvetica Neue', Helvetica, Arial-Unicode, Arial, Sans-serif">from the Noun Project</text></svg>