<svg xmlns="http://www.w3.org/2000/svg" xmlns:xlink="http://www.w3.org/1999/xlink" version="1.1" x="0px" y="0px" viewBox="0 0 100 125" style="enable-background:new 0 0 100 100;" xml:space="preserve"><style type="text/css">
	.st0{fill:#E89640;}
	.st1{fill:#1D1D1B;}
</style><g><path class="st0" d="M50,5.3"/></g><g><path class="st1" d="M50,95c-12,0-23.3-4.7-31.8-13.2C9.7,73.3,5,62,5,50C5,25.2,25.1,5,49.8,5L50,5c12.1,0.1,23.4,4.8,31.9,13.3   C90.4,26.8,95.1,38,95,50c-0.1,12-4.8,23.3-13.2,31.8C73.3,90.3,62,95,50,95z M49.8,8.6C27.1,8.6,8.6,27.2,8.6,50   c0,11.1,4.3,21.4,12.1,29.3c7.8,7.8,18.2,12.1,29.3,12.1c11,0,21.4-4.3,29.2-12.1C87,71.5,91.3,61.1,91.4,50   c0.1-11-4.2-21.4-12-29.2C71.5,13,61.1,8.7,50,8.6L49.8,8.6z"/></g><g><path class="st1" d="M6.8,51.9c-0.6,0-1.2-0.3-1.6-0.9c-0.5-0.9-0.2-2,0.7-2.5c14.5-8.4,31.8-8.5,45.1-0.1c0.8,0.5,1.1,1.6,0.6,2.5   s-1.6,1.1-2.5,0.6c-12.1-7.7-28-7.6-41.3,0.1C7.4,51.8,7.1,51.9,6.8,51.9z"/></g><g><path class="st1" d="M50,94.3c-0.3,0-0.6-0.1-0.8-0.3C35,79.7,30.3,63.9,34.4,44.3c0.1-0.6,0.7-1,1.3-0.8c0.6,0.1,1,0.7,0.8,1.3   c-4,18.8,0.5,34,14.2,47.7c0.4,0.4,0.4,1.1,0,1.5C50.6,94.2,50.3,94.3,50,94.3z"/></g><g><path class="st1" d="M28.4,88.5c-0.3,0-0.6-0.1-0.8-0.4C17.4,76.6,13,57.8,17.5,45.3c0.2-0.6,0.8-0.9,1.4-0.7   c0.6,0.2,0.9,0.8,0.7,1.4c-2,5.7-2.2,13-0.4,20.6c1.8,7.6,5.4,14.8,10,20c0.4,0.4,0.4,1.1-0.1,1.5C28.9,88.4,28.7,88.5,28.4,88.5z"/></g><g><path class="st1" d="M71.1,89.1c-0.3,0-0.6-0.1-0.9-0.2c-14.6-8.3-23.2-23.3-22.6-39c0-1,0.9-1.8,1.9-1.7c1,0,1.8,0.9,1.7,1.9   c-0.6,14.4,7.4,28,20.8,35.7c0.9,0.5,1.2,1.6,0.7,2.5C72.4,88.8,71.8,89.1,71.1,89.1z"/></g><g><path class="st1" d="M52,66.3c-0.5,0-0.9-0.3-1-0.7c-0.2-0.6,0.1-1.2,0.7-1.4c18.3-6,29.2-17.5,34.2-36.1c0.2-0.6,0.7-0.9,1.3-0.8   c0.6,0.2,0.9,0.7,0.8,1.3C82.7,48.1,71.4,60,52.3,66.3C52.2,66.3,52.1,66.3,52,66.3z"/></g><g><path class="st1" d="M61.4,80.4c-0.5,0-1-0.4-1.1-0.9c-0.1-0.6,0.3-1.2,0.9-1.3c5.9-1.1,12.4-4.6,18.1-10   c5.7-5.4,10.1-12,12.3-18.7c0.2-0.6,0.8-0.9,1.4-0.7c0.6,0.2,0.9,0.8,0.7,1.4c-4.9,14.6-18.9,27.8-32,30.1   C61.6,80.4,61.5,80.4,61.4,80.4z"/></g><g><path class="st1" d="M49.5,51.9c-0.6,0-1.3-0.4-1.6-1c-0.5-0.9-0.1-2,0.8-2.4c12.7-6.7,20.6-20.4,20.5-35.9c0-1,0.8-1.8,1.8-1.8   c0,0,0,0,0,0c1,0,1.8,0.8,1.8,1.8c0.1,16.8-8.5,31.8-22.5,39.1C50.1,51.8,49.8,51.9,49.5,51.9z"/></g><g><path class="st1" d="M61.5,41.4c-0.3,0-0.5-0.1-0.7-0.3C46.5,28.2,31.1,24.6,12.4,29.6c-0.6,0.2-1.2-0.2-1.3-0.8   c-0.2-0.6,0.2-1.2,0.8-1.3c19.5-5.2,35.5-1.4,50.4,12c0.4,0.4,0.5,1.1,0.1,1.5C62.1,41.2,61.8,41.4,61.5,41.4z"/></g><g><path class="st1" d="M69,26.1c-0.3,0-0.6-0.1-0.8-0.4c-4-4.6-10.3-8.4-17.8-10.7c-7.5-2.3-15.4-2.7-22.3-1.3   c-0.6,0.1-1.2-0.3-1.3-0.8c-0.1-0.6,0.3-1.2,0.8-1.3c14.9-3.1,33.4,2.5,42.1,12.7c0.4,0.5,0.3,1.1-0.1,1.5   C69.5,26,69.3,26.1,69,26.1z"/></g><text x="0" y="115" fill="#000000" font-size="5px" font-weight="bold" font-family="'Helvetica Neue', Helvetica, Arial-Unicode, Arial, Sans-serif">Created by Martin Wright</text><text x="0" y="120" fill="#000000" font-size="5px" font-weight="bold" font-family="'Helvetica Neue', Helvetica, Arial-Unicode, Arial, Sans-serif">from the Noun Project</text></svg>