<svg xmlns="http://www.w3.org/2000/svg" xmlns:xlink="http://www.w3.org/1999/xlink" version="1.1" x="0px" y="0px" viewBox="0 0 64 80" enable-background="new 0 0 64 64" xml:space="preserve"><g><path d="M55.546,57.835H8.455c-3.234,0-5.644-1.133-6.785-3.189s-0.829-4.7,0.88-7.444L25.479,10.39   C27.178,7.664,29.494,6.163,32,6.163c2.506,0,4.822,1.501,6.519,4.227L61.45,47.202c1.709,2.742,2.021,5.386,0.88,7.442   C61.188,56.702,58.779,57.835,55.546,57.835z M32,8.163c-1.791,0-3.504,1.167-4.824,3.285L4.248,48.259   c-1.308,2.1-1.603,4.023-0.829,5.416s2.562,2.16,5.037,2.16h47.091c2.474,0,4.262-0.768,5.036-2.161   c0.772-1.393,0.479-3.315-0.829-5.414L36.822,11.448C35.503,9.33,33.791,8.163,32,8.163z"/><g><path d="M14.825,57.837c-5.287,0-9.588-4.301-9.588-9.588s4.301-9.588,9.588-9.588c5.287,0,9.588,4.301,9.588,9.588    S20.112,57.837,14.825,57.837z M14.825,40.661c-4.184,0-7.588,3.404-7.588,7.588s3.404,7.588,7.588,7.588s7.588-3.404,7.588-7.588    S19.009,40.661,14.825,40.661z"/><path d="M32,57.837c-5.287,0-9.588-4.301-9.588-9.588s4.301-9.588,9.588-9.588c5.287,0,9.588,4.301,9.588,9.588    S37.287,57.837,32,57.837z M32,40.661c-4.184,0-7.588,3.404-7.588,7.588s3.404,7.588,7.588,7.588c4.184,0,7.588-3.404,7.588-7.588    S36.184,40.661,32,40.661z"/><path d="M49.175,57.836c-5.286,0-9.587-4.301-9.587-9.587s4.301-9.587,9.587-9.587s9.587,4.301,9.587,9.587    S54.461,57.836,49.175,57.836z M49.175,40.662c-4.184,0-7.587,3.403-7.587,7.587s3.403,7.587,7.587,7.587s7.587-3.403,7.587-7.587    S53.358,40.662,49.175,40.662z"/><path d="M32.001,27.922c-5.287,0-9.588-4.302-9.588-9.589c0-5.286,4.301-9.586,9.588-9.586c5.285,0,9.585,4.3,9.585,9.586    C41.586,23.62,37.286,27.922,32.001,27.922z M32.001,10.747c-4.184,0-7.588,3.403-7.588,7.586c0,4.185,3.404,7.589,7.588,7.589    c4.183,0,7.585-3.404,7.585-7.589C39.586,14.15,36.184,10.747,32.001,10.747z"/><path d="M23.413,42.861c-5.287,0-9.588-4.301-9.588-9.588c0-5.287,4.301-9.587,9.588-9.587s9.588,4.301,9.588,9.587    C33.001,38.561,28.7,42.861,23.413,42.861z M23.413,25.686c-4.184,0-7.588,3.404-7.588,7.587s3.404,7.588,7.588,7.588    s7.588-3.404,7.588-7.588S27.597,25.686,23.413,25.686z"/><path d="M40.588,42.861c-5.286,0-9.587-4.301-9.587-9.588c0-5.286,4.301-9.586,9.587-9.586s9.587,4.3,9.587,9.586    C50.175,38.561,45.874,42.861,40.588,42.861z M40.588,25.687c-4.184,0-7.587,3.403-7.587,7.586c0,4.184,3.403,7.588,7.587,7.588    s7.587-3.404,7.587-7.588C48.175,29.09,44.771,25.687,40.588,25.687z"/></g></g><text x="0" y="79" fill="#000000" font-size="5px" font-weight="bold" font-family="'Helvetica Neue', Helvetica, Arial-Unicode, Arial, Sans-serif">Created by Creative Stall</text><text x="0" y="84" fill="#000000" font-size="5px" font-weight="bold" font-family="'Helvetica Neue', Helvetica, Arial-Unicode, Arial, Sans-serif">from the Noun Project</text></svg>